<?xml version="1.0" encoding="utf-8" standalone="no"?>
<!DOCTYPE svg PUBLIC "-//W3C//DTD SVG 1.1//EN"
  "http://www.w3.org/Graphics/SVG/1.1/DTD/svg11.dtd">
<svg xmlns:xlink="http://www.w3.org/1999/xlink" width="368.97409pt" height="222.981172pt" viewBox="0 0 368.97409 222.981172" xmlns="http://www.w3.org/2000/svg" version="1.1">
 <metadata>
  <rdf:RDF xmlns:dc="http://purl.org/dc/elements/1.1/" xmlns:cc="http://creativecommons.org/ns#" xmlns:rdf="http://www.w3.org/1999/02/22-rdf-syntax-ns#">
   <cc:Work>
    <dc:type rdf:resource="http://purl.org/dc/dcmitype/StillImage"/>
    <dc:date>2024-04-10T00:39:29.921701</dc:date>
    <dc:format>image/svg+xml</dc:format>
    <dc:creator>
     <cc:Agent>
      <dc:title>Matplotlib v3.8.2, https://matplotlib.org/</dc:title>
     </cc:Agent>
    </dc:creator>
   </cc:Work>
  </rdf:RDF>
 </metadata>
 <defs>
  <style type="text/css">*{stroke-linejoin: round; stroke-linecap: butt}</style>
 </defs>
 <g id="figure_1">
  <g id="patch_1">
   <path d="M -0 222.981172 
L 368.97409 222.981172 
L 368.97409 0 
L -0 0 
z
" style="fill: #ffffff"/>
  </g>
  <g id="axes_1">
   <g id="patch_2">
    <path d="M 47.853203 180.56 
L 355.493203 180.56 
L 355.493203 7.2 
L 47.853203 7.2 
z
" style="fill: #ffffff"/>
   </g>
   <g id="matplotlib.axis_1">
    <g id="xtick_1">
     <g id="line2d_1">
      <path d="M 74.247725 180.56 
L 74.247725 7.2 
" clip-path="url(#p027193b244)" style="fill: none; stroke: #b0b0b0; stroke-opacity: 0.5; stroke-width: 0.8; stroke-linecap: square"/>
     </g>
     <g id="line2d_2">
      <defs>
       <path id="m8f97f35d7f" d="M 0 0 
L 0 3.5 
" style="stroke: #000000; stroke-width: 0.8"/>
      </defs>
      <g>
       <use xlink:href="#m8f97f35d7f" x="74.247725" y="180.56" style="stroke: #000000; stroke-width: 0.8"/>
      </g>
     </g>
     <g id="text_1">
      <!-- 1.25 -->
      <g transform="translate(63.114913 195.158437) scale(0.1 -0.1)">
       <defs>
        <path id="DejaVuSans-31" d="M 794 531 
L 1825 531 
L 1825 4091 
L 703 3866 
L 703 4441 
L 1819 4666 
L 2450 4666 
L 2450 531 
L 3481 531 
L 3481 0 
L 794 0 
L 794 531 
z
" transform="scale(0.015625)"/>
        <path id="DejaVuSans-2e" d="M 684 794 
L 1344 794 
L 1344 0 
L 684 0 
L 684 794 
z
" transform="scale(0.015625)"/>
        <path id="DejaVuSans-32" d="M 1228 531 
L 3431 531 
L 3431 0 
L 469 0 
L 469 531 
Q 828 903 1448 1529 
Q 2069 2156 2228 2338 
Q 2531 2678 2651 2914 
Q 2772 3150 2772 3378 
Q 2772 3750 2511 3984 
Q 2250 4219 1831 4219 
Q 1534 4219 1204 4116 
Q 875 4013 500 3803 
L 500 4441 
Q 881 4594 1212 4672 
Q 1544 4750 1819 4750 
Q 2544 4750 2975 4387 
Q 3406 4025 3406 3419 
Q 3406 3131 3298 2873 
Q 3191 2616 2906 2266 
Q 2828 2175 2409 1742 
Q 1991 1309 1228 531 
z
" transform="scale(0.015625)"/>
        <path id="DejaVuSans-35" d="M 691 4666 
L 3169 4666 
L 3169 4134 
L 1269 4134 
L 1269 2991 
Q 1406 3038 1543 3061 
Q 1681 3084 1819 3084 
Q 2600 3084 3056 2656 
Q 3513 2228 3513 1497 
Q 3513 744 3044 326 
Q 2575 -91 1722 -91 
Q 1428 -91 1123 -41 
Q 819 9 494 109 
L 494 744 
Q 775 591 1075 516 
Q 1375 441 1709 441 
Q 2250 441 2565 725 
Q 2881 1009 2881 1497 
Q 2881 1984 2565 2268 
Q 2250 2553 1709 2553 
Q 1456 2553 1204 2497 
Q 953 2441 691 2322 
L 691 4666 
z
" transform="scale(0.015625)"/>
       </defs>
       <use xlink:href="#DejaVuSans-31"/>
       <use xlink:href="#DejaVuSans-2e" x="63.623047"/>
       <use xlink:href="#DejaVuSans-32" x="95.410156"/>
       <use xlink:href="#DejaVuSans-35" x="159.033203"/>
      </g>
     </g>
    </g>
    <g id="xtick_2">
     <g id="line2d_3">
      <path d="M 108.796919 180.56 
L 108.796919 7.2 
" clip-path="url(#p027193b244)" style="fill: none; stroke: #b0b0b0; stroke-opacity: 0.5; stroke-width: 0.8; stroke-linecap: square"/>
     </g>
     <g id="line2d_4">
      <g>
       <use xlink:href="#m8f97f35d7f" x="108.796919" y="180.56" style="stroke: #000000; stroke-width: 0.8"/>
      </g>
     </g>
     <g id="text_2">
      <!-- 1.50 -->
      <g transform="translate(97.664107 195.158437) scale(0.1 -0.1)">
       <defs>
        <path id="DejaVuSans-30" d="M 2034 4250 
Q 1547 4250 1301 3770 
Q 1056 3291 1056 2328 
Q 1056 1369 1301 889 
Q 1547 409 2034 409 
Q 2525 409 2770 889 
Q 3016 1369 3016 2328 
Q 3016 3291 2770 3770 
Q 2525 4250 2034 4250 
z
M 2034 4750 
Q 2819 4750 3233 4129 
Q 3647 3509 3647 2328 
Q 3647 1150 3233 529 
Q 2819 -91 2034 -91 
Q 1250 -91 836 529 
Q 422 1150 422 2328 
Q 422 3509 836 4129 
Q 1250 4750 2034 4750 
z
" transform="scale(0.015625)"/>
       </defs>
       <use xlink:href="#DejaVuSans-31"/>
       <use xlink:href="#DejaVuSans-2e" x="63.623047"/>
       <use xlink:href="#DejaVuSans-35" x="95.410156"/>
       <use xlink:href="#DejaVuSans-30" x="159.033203"/>
      </g>
     </g>
    </g>
    <g id="xtick_3">
     <g id="line2d_5">
      <path d="M 143.346113 180.56 
L 143.346113 7.2 
" clip-path="url(#p027193b244)" style="fill: none; stroke: #b0b0b0; stroke-opacity: 0.5; stroke-width: 0.8; stroke-linecap: square"/>
     </g>
     <g id="line2d_6">
      <g>
       <use xlink:href="#m8f97f35d7f" x="143.346113" y="180.56" style="stroke: #000000; stroke-width: 0.8"/>
      </g>
     </g>
     <g id="text_3">
      <!-- 1.75 -->
      <g transform="translate(132.213301 195.158437) scale(0.1 -0.1)">
       <defs>
        <path id="DejaVuSans-37" d="M 525 4666 
L 3525 4666 
L 3525 4397 
L 1831 0 
L 1172 0 
L 2766 4134 
L 525 4134 
L 525 4666 
z
" transform="scale(0.015625)"/>
       </defs>
       <use xlink:href="#DejaVuSans-31"/>
       <use xlink:href="#DejaVuSans-2e" x="63.623047"/>
       <use xlink:href="#DejaVuSans-37" x="95.410156"/>
       <use xlink:href="#DejaVuSans-35" x="159.033203"/>
      </g>
     </g>
    </g>
    <g id="xtick_4">
     <g id="line2d_7">
      <path d="M 177.895307 180.56 
L 177.895307 7.2 
" clip-path="url(#p027193b244)" style="fill: none; stroke: #b0b0b0; stroke-opacity: 0.5; stroke-width: 0.8; stroke-linecap: square"/>
     </g>
     <g id="line2d_8">
      <g>
       <use xlink:href="#m8f97f35d7f" x="177.895307" y="180.56" style="stroke: #000000; stroke-width: 0.8"/>
      </g>
     </g>
     <g id="text_4">
      <!-- 2.00 -->
      <g transform="translate(166.762495 195.158437) scale(0.1 -0.1)">
       <use xlink:href="#DejaVuSans-32"/>
       <use xlink:href="#DejaVuSans-2e" x="63.623047"/>
       <use xlink:href="#DejaVuSans-30" x="95.410156"/>
       <use xlink:href="#DejaVuSans-30" x="159.033203"/>
      </g>
     </g>
    </g>
    <g id="xtick_5">
     <g id="line2d_9">
      <path d="M 212.444501 180.56 
L 212.444501 7.2 
" clip-path="url(#p027193b244)" style="fill: none; stroke: #b0b0b0; stroke-opacity: 0.5; stroke-width: 0.8; stroke-linecap: square"/>
     </g>
     <g id="line2d_10">
      <g>
       <use xlink:href="#m8f97f35d7f" x="212.444501" y="180.56" style="stroke: #000000; stroke-width: 0.8"/>
      </g>
     </g>
     <g id="text_5">
      <!-- 2.25 -->
      <g transform="translate(201.311689 195.158437) scale(0.1 -0.1)">
       <use xlink:href="#DejaVuSans-32"/>
       <use xlink:href="#DejaVuSans-2e" x="63.623047"/>
       <use xlink:href="#DejaVuSans-32" x="95.410156"/>
       <use xlink:href="#DejaVuSans-35" x="159.033203"/>
      </g>
     </g>
    </g>
    <g id="xtick_6">
     <g id="line2d_11">
      <path d="M 246.993695 180.56 
L 246.993695 7.2 
" clip-path="url(#p027193b244)" style="fill: none; stroke: #b0b0b0; stroke-opacity: 0.5; stroke-width: 0.8; stroke-linecap: square"/>
     </g>
     <g id="line2d_12">
      <g>
       <use xlink:href="#m8f97f35d7f" x="246.993695" y="180.56" style="stroke: #000000; stroke-width: 0.8"/>
      </g>
     </g>
     <g id="text_6">
      <!-- 2.50 -->
      <g transform="translate(235.860883 195.158437) scale(0.1 -0.1)">
       <use xlink:href="#DejaVuSans-32"/>
       <use xlink:href="#DejaVuSans-2e" x="63.623047"/>
       <use xlink:href="#DejaVuSans-35" x="95.410156"/>
       <use xlink:href="#DejaVuSans-30" x="159.033203"/>
      </g>
     </g>
    </g>
    <g id="xtick_7">
     <g id="line2d_13">
      <path d="M 281.542889 180.56 
L 281.542889 7.2 
" clip-path="url(#p027193b244)" style="fill: none; stroke: #b0b0b0; stroke-opacity: 0.5; stroke-width: 0.8; stroke-linecap: square"/>
     </g>
     <g id="line2d_14">
      <g>
       <use xlink:href="#m8f97f35d7f" x="281.542889" y="180.56" style="stroke: #000000; stroke-width: 0.8"/>
      </g>
     </g>
     <g id="text_7">
      <!-- 2.75 -->
      <g transform="translate(270.410077 195.158437) scale(0.1 -0.1)">
       <use xlink:href="#DejaVuSans-32"/>
       <use xlink:href="#DejaVuSans-2e" x="63.623047"/>
       <use xlink:href="#DejaVuSans-37" x="95.410156"/>
       <use xlink:href="#DejaVuSans-35" x="159.033203"/>
      </g>
     </g>
    </g>
    <g id="xtick_8">
     <g id="line2d_15">
      <path d="M 316.092083 180.56 
L 316.092083 7.2 
" clip-path="url(#p027193b244)" style="fill: none; stroke: #b0b0b0; stroke-opacity: 0.5; stroke-width: 0.8; stroke-linecap: square"/>
     </g>
     <g id="line2d_16">
      <g>
       <use xlink:href="#m8f97f35d7f" x="316.092083" y="180.56" style="stroke: #000000; stroke-width: 0.8"/>
      </g>
     </g>
     <g id="text_8">
      <!-- 3.00 -->
      <g transform="translate(304.959271 195.158437) scale(0.1 -0.1)">
       <defs>
        <path id="DejaVuSans-33" d="M 2597 2516 
Q 3050 2419 3304 2112 
Q 3559 1806 3559 1356 
Q 3559 666 3084 287 
Q 2609 -91 1734 -91 
Q 1441 -91 1130 -33 
Q 819 25 488 141 
L 488 750 
Q 750 597 1062 519 
Q 1375 441 1716 441 
Q 2309 441 2620 675 
Q 2931 909 2931 1356 
Q 2931 1769 2642 2001 
Q 2353 2234 1838 2234 
L 1294 2234 
L 1294 2753 
L 1863 2753 
Q 2328 2753 2575 2939 
Q 2822 3125 2822 3475 
Q 2822 3834 2567 4026 
Q 2313 4219 1838 4219 
Q 1578 4219 1281 4162 
Q 984 4106 628 3988 
L 628 4550 
Q 988 4650 1302 4700 
Q 1616 4750 1894 4750 
Q 2613 4750 3031 4423 
Q 3450 4097 3450 3541 
Q 3450 3153 3228 2886 
Q 3006 2619 2597 2516 
z
" transform="scale(0.015625)"/>
       </defs>
       <use xlink:href="#DejaVuSans-33"/>
       <use xlink:href="#DejaVuSans-2e" x="63.623047"/>
       <use xlink:href="#DejaVuSans-30" x="95.410156"/>
       <use xlink:href="#DejaVuSans-30" x="159.033203"/>
      </g>
     </g>
    </g>
    <g id="xtick_9">
     <g id="line2d_17">
      <path d="M 350.641278 180.56 
L 350.641278 7.2 
" clip-path="url(#p027193b244)" style="fill: none; stroke: #b0b0b0; stroke-opacity: 0.5; stroke-width: 0.8; stroke-linecap: square"/>
     </g>
     <g id="line2d_18">
      <g>
       <use xlink:href="#m8f97f35d7f" x="350.641278" y="180.56" style="stroke: #000000; stroke-width: 0.8"/>
      </g>
     </g>
     <g id="text_9">
      <!-- 3.25 -->
      <g transform="translate(339.508465 195.158437) scale(0.1 -0.1)">
       <use xlink:href="#DejaVuSans-33"/>
       <use xlink:href="#DejaVuSans-2e" x="63.623047"/>
       <use xlink:href="#DejaVuSans-32" x="95.410156"/>
       <use xlink:href="#DejaVuSans-35" x="159.033203"/>
      </g>
     </g>
    </g>
    <g id="text_10">
     <!-- 吞吐量(Byte/s) -->
     <g transform="translate(154.284258 213.162109) scale(0.145 -0.145)">
      <defs>
       <path id="WenQuanYiZenHei-541e" d="M 2175 -769 
Q 1931 -744 1681 -769 
Q 1706 -319 1706 131 
L 1706 1713 
Q 1119 1194 406 919 
Q 338 1188 131 1369 
Q 1100 1719 1788 2438 
Q 2169 2831 2363 3281 
L 1131 3281 
Q 788 3281 438 3263 
Q 456 3450 438 3644 
Q 788 3625 1131 3625 
L 2488 3625 
Q 2650 4138 2731 4644 
L 1675 4644 
Q 1325 4644 981 4625 
Q 1000 4813 981 5000 
Q 1325 4988 1675 4988 
L 4588 4988 
Q 4938 4988 5288 5000 
Q 5263 4813 5288 4625 
Q 4938 4644 4588 4644 
L 3231 4644 
Q 3163 4119 2988 3625 
L 5188 3625 
Q 5538 3625 5888 3644 
Q 5869 3450 5888 3263 
Q 5538 3281 5188 3281 
L 3863 3281 
Q 4294 2650 4809 2253 
Q 5325 1856 6119 1631 
Q 5900 1475 5825 1219 
Q 5288 1388 4781 1750 
L 4781 -756 
L 4331 -756 
L 4331 -269 
L 2156 -269 
Q 2163 -519 2175 -769 
z
M 4331 1581 
L 2150 1581 
L 2150 75 
L 4331 75 
L 4331 1581 
z
M 1931 1925 
L 4550 1925 
Q 3888 2469 3388 3281 
L 2850 3281 
Q 2506 2513 1931 1925 
z
" transform="scale(0.015625)"/>
       <path id="WenQuanYiZenHei-5410" d="M 6181 -125 
Q 6163 -325 6181 -525 
Q 5819 -506 5450 -506 
L 3056 -506 
Q 2694 -506 2331 -525 
Q 2350 -325 2331 -125 
Q 2694 -144 3056 -144 
L 4000 -144 
L 4000 2800 
L 3413 2800 
Q 3050 2800 2688 2781 
Q 2706 2981 2688 3175 
Q 3050 3156 3413 3156 
L 4000 3156 
L 4000 4350 
Q 4000 4806 3975 5263 
Q 4225 5238 4469 5263 
Q 4450 4806 4450 4350 
L 4450 3156 
L 5250 3156 
Q 5613 3156 5981 3175 
Q 5956 2981 5981 2781 
Q 5613 2800 5250 2800 
L 4450 2800 
L 4450 -144 
L 5450 -144 
Q 5819 -144 6181 -125 
z
M 825 269 
L 319 269 
L 319 4750 
L 2256 4750 
L 2256 269 
L 1750 269 
L 1750 831 
L 825 831 
L 825 269 
z
M 1750 4481 
L 825 4481 
L 825 1081 
L 1750 1081 
L 1750 4481 
z
" transform="scale(0.015625)"/>
       <path id="WenQuanYiZenHei-91cf" d="M 5963 -138 
Q 5944 -281 5963 -431 
Q 5694 -419 5425 -419 
L 838 -419 
Q 569 -419 306 -431 
Q 319 -281 306 -138 
Q 569 -150 838 -150 
L 2831 -150 
L 2831 269 
L 1481 269 
Q 1188 269 894 250 
Q 913 413 894 569 
Q 1188 556 1481 556 
L 2831 556 
L 2831 969 
L 1125 969 
Q 1200 1775 1125 2581 
L 5094 2581 
Q 5013 1775 5088 969 
L 3250 969 
L 3250 556 
L 4819 556 
Q 5113 556 5400 569 
Q 5388 413 5400 250 
Q 5113 269 4819 269 
L 3250 269 
L 3250 -150 
L 5425 -150 
Q 5694 -150 5963 -138 
z
M 6131 3194 
Q 6119 3038 6131 2875 
Q 5844 2894 5550 2894 
L 700 2894 
Q 406 2894 119 2875 
Q 131 3038 119 3194 
Q 413 3181 700 3181 
L 5550 3181 
Q 5838 3181 6131 3194 
z
M 1125 3469 
Q 1200 4250 1125 5025 
L 5013 5025 
Q 4931 4250 5000 3469 
L 1125 3469 
z
M 3250 1900 
L 4669 1900 
L 4669 2294 
L 3250 2294 
L 3250 1900 
z
M 2831 1900 
L 2831 2294 
L 1544 2294 
L 1544 1900 
L 2831 1900 
z
M 3250 1638 
L 3250 1256 
L 4669 1256 
L 4669 1638 
L 3250 1638 
z
M 2831 1638 
L 1544 1638 
L 1544 1256 
L 2831 1256 
L 2831 1638 
z
M 1544 4738 
L 1544 4381 
L 4588 4381 
L 4594 4738 
L 1544 4738 
z
M 1544 4119 
L 1544 3756 
L 4588 3756 
L 4588 4119 
L 1544 4119 
z
" transform="scale(0.015625)"/>
       <path id="WenQuanYiZenHei-28" d="M 1606 -1094 
L 1275 -1094 
Q 475 -100 338 1231 
Q 319 1438 319 1656 
Q 319 3031 1156 4244 
Q 1213 4313 1269 4388 
L 1600 4388 
Q 806 3169 794 1681 
Q 794 188 1606 -1094 
z
" transform="scale(0.015625)"/>
       <path id="WenQuanYiZenHei-42" d="M 3675 1213 
Q 3675 613 3250 281 
Q 2913 13 2313 0 
L 2169 0 
L 519 0 
L 519 4388 
L 2175 4388 
Q 2706 4388 2981 4244 
Q 3025 4219 3081 4188 
Q 3531 3881 3538 3319 
Q 3538 2744 3088 2463 
L 2888 2375 
Q 2831 2350 2763 2338 
L 2763 2325 
Q 3313 2206 3550 1725 
Q 3675 1494 3675 1213 
z
M 2994 3250 
Q 2994 3856 2313 3938 
Q 2225 3944 2131 3944 
L 1069 3944 
L 1069 2506 
L 1981 2506 
Q 2994 2506 2994 3250 
z
M 3125 1238 
Q 3125 1638 2838 1894 
Q 2825 1906 2806 1919 
Q 2588 2088 2113 2088 
L 1069 2088 
L 1069 469 
L 2144 469 
Q 2975 469 3106 1038 
Q 3125 1125 3125 1238 
z
" transform="scale(0.015625)"/>
       <path id="WenQuanYiZenHei-79" d="M 2719 3250 
L 1444 -306 
Q 1250 -863 969 -1031 
Q 763 -1156 456 -1156 
Q 300 -1156 81 -1100 
L 81 -700 
Q 275 -744 419 -744 
Q 813 -744 1000 -344 
Q 1038 -269 1144 56 
L 19 3250 
L 538 3250 
L 1406 806 
L 2300 3250 
L 2719 3250 
z
" transform="scale(0.015625)"/>
       <path id="WenQuanYiZenHei-74" d="M 1994 -25 
L 1406 -69 
Q 594 -69 594 1000 
L 594 2881 
L 19 2881 
L 19 3275 
L 594 3275 
L 594 4081 
L 1094 4138 
L 1094 3275 
L 1819 3275 
L 1819 2881 
L 1094 2881 
L 1094 913 
Q 1150 363 1538 331 
Q 1538 331 1994 369 
L 1994 -25 
z
" transform="scale(0.015625)"/>
       <path id="WenQuanYiZenHei-65" d="M 3163 1588 
L 800 1588 
Q 794 963 1088 631 
Q 1331 356 1769 356 
Q 2313 356 2569 831 
Q 2606 900 2638 988 
L 3113 888 
Q 2931 325 2363 69 
Q 2063 -63 1725 -63 
Q 888 -63 488 625 
Q 238 1050 238 1625 
Q 238 2431 725 2925 
Q 1125 3338 1744 3338 
Q 2588 3338 2956 2606 
Q 3163 2200 3163 1663 
L 3163 1588 
z
M 2613 1956 
Q 2619 2488 2288 2763 
Q 2063 2950 1744 2950 
Q 1250 2950 988 2500 
Q 838 2256 825 1956 
L 2613 1956 
z
" transform="scale(0.015625)"/>
       <path id="WenQuanYiZenHei-2f" d="M 3213 4388 
L 563 -1094 
L 138 -1094 
L 2775 4388 
L 3213 4388 
z
" transform="scale(0.015625)"/>
       <path id="WenQuanYiZenHei-73" d="M 3031 944 
Q 3031 294 2350 44 
Q 2050 -63 1681 -63 
Q 863 -63 475 425 
Q 319 613 256 863 
L 744 963 
Q 806 544 1344 406 
Q 1531 350 1719 350 
Q 2250 350 2438 631 
Q 2506 744 2506 888 
Q 2506 1206 2081 1331 
L 1638 1425 
Q 988 1544 750 1688 
Q 388 1919 388 2381 
Q 388 2975 994 3219 
Q 1269 3338 1606 3338 
Q 2463 3338 2781 2781 
Q 2856 2663 2894 2513 
L 2431 2419 
Q 2275 2869 1725 2925 
Q 1663 2931 1600 2931 
Q 1150 2931 981 2688 
Q 906 2594 906 2456 
Q 906 2138 1356 2013 
Q 1413 1988 2038 1881 
Q 2456 1806 2644 1675 
Q 3031 1413 3031 944 
z
" transform="scale(0.015625)"/>
       <path id="WenQuanYiZenHei-29" d="M 1600 1656 
Q 1600 306 869 -788 
Q 769 -950 644 -1094 
L 313 -1094 
Q 1125 188 1125 1681 
Q 1125 3169 338 4363 
Q 325 4375 319 4388 
L 650 4388 
Q 1525 3231 1594 1863 
Q 1600 1763 1600 1656 
z
" transform="scale(0.015625)"/>
      </defs>
      <use xlink:href="#WenQuanYiZenHei-541e"/>
      <use xlink:href="#WenQuanYiZenHei-5410" x="100"/>
      <use xlink:href="#WenQuanYiZenHei-91cf" x="200"/>
      <use xlink:href="#WenQuanYiZenHei-28" x="300"/>
      <use xlink:href="#WenQuanYiZenHei-42" x="329.980469"/>
      <use xlink:href="#WenQuanYiZenHei-79" x="391.894531"/>
      <use xlink:href="#WenQuanYiZenHei-74" x="433.886719"/>
      <use xlink:href="#WenQuanYiZenHei-65" x="465.820312"/>
      <use xlink:href="#WenQuanYiZenHei-2f" x="519.726562"/>
      <use xlink:href="#WenQuanYiZenHei-73" x="571.679688"/>
      <use xlink:href="#WenQuanYiZenHei-29" x="623.632812"/>
     </g>
    </g>
    <g id="text_11">
     <!-- 1e9 -->
     <g transform="translate(336.615078 207.836562) scale(0.1 -0.1)">
      <defs>
       <path id="DejaVuSans-65" d="M 3597 1894 
L 3597 1613 
L 953 1613 
Q 991 1019 1311 708 
Q 1631 397 2203 397 
Q 2534 397 2845 478 
Q 3156 559 3463 722 
L 3463 178 
Q 3153 47 2828 -22 
Q 2503 -91 2169 -91 
Q 1331 -91 842 396 
Q 353 884 353 1716 
Q 353 2575 817 3079 
Q 1281 3584 2069 3584 
Q 2775 3584 3186 3129 
Q 3597 2675 3597 1894 
z
M 3022 2063 
Q 3016 2534 2758 2815 
Q 2500 3097 2075 3097 
Q 1594 3097 1305 2825 
Q 1016 2553 972 2059 
L 3022 2063 
z
" transform="scale(0.015625)"/>
       <path id="DejaVuSans-39" d="M 703 97 
L 703 672 
Q 941 559 1184 500 
Q 1428 441 1663 441 
Q 2288 441 2617 861 
Q 2947 1281 2994 2138 
Q 2813 1869 2534 1725 
Q 2256 1581 1919 1581 
Q 1219 1581 811 2004 
Q 403 2428 403 3163 
Q 403 3881 828 4315 
Q 1253 4750 1959 4750 
Q 2769 4750 3195 4129 
Q 3622 3509 3622 2328 
Q 3622 1225 3098 567 
Q 2575 -91 1691 -91 
Q 1453 -91 1209 -44 
Q 966 3 703 97 
z
M 1959 2075 
Q 2384 2075 2632 2365 
Q 2881 2656 2881 3163 
Q 2881 3666 2632 3958 
Q 2384 4250 1959 4250 
Q 1534 4250 1286 3958 
Q 1038 3666 1038 3163 
Q 1038 2656 1286 2365 
Q 1534 2075 1959 2075 
z
" transform="scale(0.015625)"/>
      </defs>
      <use xlink:href="#DejaVuSans-31"/>
      <use xlink:href="#DejaVuSans-65" x="63.623047"/>
      <use xlink:href="#DejaVuSans-39" x="125.146484"/>
     </g>
    </g>
   </g>
   <g id="matplotlib.axis_2">
    <g id="ytick_1">
     <g id="line2d_19">
      <path d="M 47.853203 172.68 
L 355.493203 172.68 
" clip-path="url(#p027193b244)" style="fill: none; stroke: #b0b0b0; stroke-opacity: 0.5; stroke-width: 0.8; stroke-linecap: square"/>
     </g>
     <g id="line2d_20">
      <defs>
       <path id="m804c486776" d="M 0 0 
L -3.5 0 
" style="stroke: #000000; stroke-width: 0.8"/>
      </defs>
      <g>
       <use xlink:href="#m804c486776" x="47.853203" y="172.68" style="stroke: #000000; stroke-width: 0.8"/>
      </g>
     </g>
     <g id="text_12">
      <!-- 0.0 -->
      <g transform="translate(24.950078 176.479219) scale(0.1 -0.1)">
       <use xlink:href="#DejaVuSans-30"/>
       <use xlink:href="#DejaVuSans-2e" x="63.623047"/>
       <use xlink:href="#DejaVuSans-30" x="95.410156"/>
      </g>
     </g>
    </g>
    <g id="ytick_2">
     <g id="line2d_21">
      <path d="M 47.853203 141.16 
L 355.493203 141.16 
" clip-path="url(#p027193b244)" style="fill: none; stroke: #b0b0b0; stroke-opacity: 0.5; stroke-width: 0.8; stroke-linecap: square"/>
     </g>
     <g id="line2d_22">
      <g>
       <use xlink:href="#m804c486776" x="47.853203" y="141.16" style="stroke: #000000; stroke-width: 0.8"/>
      </g>
     </g>
     <g id="text_13">
      <!-- 0.2 -->
      <g transform="translate(24.950078 144.959219) scale(0.1 -0.1)">
       <use xlink:href="#DejaVuSans-30"/>
       <use xlink:href="#DejaVuSans-2e" x="63.623047"/>
       <use xlink:href="#DejaVuSans-32" x="95.410156"/>
      </g>
     </g>
    </g>
    <g id="ytick_3">
     <g id="line2d_23">
      <path d="M 47.853203 109.64 
L 355.493203 109.64 
" clip-path="url(#p027193b244)" style="fill: none; stroke: #b0b0b0; stroke-opacity: 0.5; stroke-width: 0.8; stroke-linecap: square"/>
     </g>
     <g id="line2d_24">
      <g>
       <use xlink:href="#m804c486776" x="47.853203" y="109.64" style="stroke: #000000; stroke-width: 0.8"/>
      </g>
     </g>
     <g id="text_14">
      <!-- 0.4 -->
      <g transform="translate(24.950078 113.439219) scale(0.1 -0.1)">
       <defs>
        <path id="DejaVuSans-34" d="M 2419 4116 
L 825 1625 
L 2419 1625 
L 2419 4116 
z
M 2253 4666 
L 3047 4666 
L 3047 1625 
L 3713 1625 
L 3713 1100 
L 3047 1100 
L 3047 0 
L 2419 0 
L 2419 1100 
L 313 1100 
L 313 1709 
L 2253 4666 
z
" transform="scale(0.015625)"/>
       </defs>
       <use xlink:href="#DejaVuSans-30"/>
       <use xlink:href="#DejaVuSans-2e" x="63.623047"/>
       <use xlink:href="#DejaVuSans-34" x="95.410156"/>
      </g>
     </g>
    </g>
    <g id="ytick_4">
     <g id="line2d_25">
      <path d="M 47.853203 78.12 
L 355.493203 78.12 
" clip-path="url(#p027193b244)" style="fill: none; stroke: #b0b0b0; stroke-opacity: 0.5; stroke-width: 0.8; stroke-linecap: square"/>
     </g>
     <g id="line2d_26">
      <g>
       <use xlink:href="#m804c486776" x="47.853203" y="78.12" style="stroke: #000000; stroke-width: 0.8"/>
      </g>
     </g>
     <g id="text_15">
      <!-- 0.6 -->
      <g transform="translate(24.950078 81.919219) scale(0.1 -0.1)">
       <defs>
        <path id="DejaVuSans-36" d="M 2113 2584 
Q 1688 2584 1439 2293 
Q 1191 2003 1191 1497 
Q 1191 994 1439 701 
Q 1688 409 2113 409 
Q 2538 409 2786 701 
Q 3034 994 3034 1497 
Q 3034 2003 2786 2293 
Q 2538 2584 2113 2584 
z
M 3366 4563 
L 3366 3988 
Q 3128 4100 2886 4159 
Q 2644 4219 2406 4219 
Q 1781 4219 1451 3797 
Q 1122 3375 1075 2522 
Q 1259 2794 1537 2939 
Q 1816 3084 2150 3084 
Q 2853 3084 3261 2657 
Q 3669 2231 3669 1497 
Q 3669 778 3244 343 
Q 2819 -91 2113 -91 
Q 1303 -91 875 529 
Q 447 1150 447 2328 
Q 447 3434 972 4092 
Q 1497 4750 2381 4750 
Q 2619 4750 2861 4703 
Q 3103 4656 3366 4563 
z
" transform="scale(0.015625)"/>
       </defs>
       <use xlink:href="#DejaVuSans-30"/>
       <use xlink:href="#DejaVuSans-2e" x="63.623047"/>
       <use xlink:href="#DejaVuSans-36" x="95.410156"/>
      </g>
     </g>
    </g>
    <g id="ytick_5">
     <g id="line2d_27">
      <path d="M 47.853203 46.6 
L 355.493203 46.6 
" clip-path="url(#p027193b244)" style="fill: none; stroke: #b0b0b0; stroke-opacity: 0.5; stroke-width: 0.8; stroke-linecap: square"/>
     </g>
     <g id="line2d_28">
      <g>
       <use xlink:href="#m804c486776" x="47.853203" y="46.6" style="stroke: #000000; stroke-width: 0.8"/>
      </g>
     </g>
     <g id="text_16">
      <!-- 0.8 -->
      <g transform="translate(24.950078 50.399219) scale(0.1 -0.1)">
       <defs>
        <path id="DejaVuSans-38" d="M 2034 2216 
Q 1584 2216 1326 1975 
Q 1069 1734 1069 1313 
Q 1069 891 1326 650 
Q 1584 409 2034 409 
Q 2484 409 2743 651 
Q 3003 894 3003 1313 
Q 3003 1734 2745 1975 
Q 2488 2216 2034 2216 
z
M 1403 2484 
Q 997 2584 770 2862 
Q 544 3141 544 3541 
Q 544 4100 942 4425 
Q 1341 4750 2034 4750 
Q 2731 4750 3128 4425 
Q 3525 4100 3525 3541 
Q 3525 3141 3298 2862 
Q 3072 2584 2669 2484 
Q 3125 2378 3379 2068 
Q 3634 1759 3634 1313 
Q 3634 634 3220 271 
Q 2806 -91 2034 -91 
Q 1263 -91 848 271 
Q 434 634 434 1313 
Q 434 1759 690 2068 
Q 947 2378 1403 2484 
z
M 1172 3481 
Q 1172 3119 1398 2916 
Q 1625 2713 2034 2713 
Q 2441 2713 2670 2916 
Q 2900 3119 2900 3481 
Q 2900 3844 2670 4047 
Q 2441 4250 2034 4250 
Q 1625 4250 1398 4047 
Q 1172 3844 1172 3481 
z
" transform="scale(0.015625)"/>
       </defs>
       <use xlink:href="#DejaVuSans-30"/>
       <use xlink:href="#DejaVuSans-2e" x="63.623047"/>
       <use xlink:href="#DejaVuSans-38" x="95.410156"/>
      </g>
     </g>
    </g>
    <g id="ytick_6">
     <g id="line2d_29">
      <path d="M 47.853203 15.08 
L 355.493203 15.08 
" clip-path="url(#p027193b244)" style="fill: none; stroke: #b0b0b0; stroke-opacity: 0.5; stroke-width: 0.8; stroke-linecap: square"/>
     </g>
     <g id="line2d_30">
      <g>
       <use xlink:href="#m804c486776" x="47.853203" y="15.08" style="stroke: #000000; stroke-width: 0.8"/>
      </g>
     </g>
     <g id="text_17">
      <!-- 1.0 -->
      <g transform="translate(24.950078 18.879219) scale(0.1 -0.1)">
       <use xlink:href="#DejaVuSans-31"/>
       <use xlink:href="#DejaVuSans-2e" x="63.623047"/>
       <use xlink:href="#DejaVuSans-30" x="95.410156"/>
      </g>
     </g>
    </g>
    <g id="text_18">
     <!-- 累积分布函数 -->
     <g transform="translate(18.541719 137.38) rotate(-90) scale(0.145 -0.145)">
      <defs>
       <path id="WenQuanYiZenHei-7d2f" d="M 5963 -681 
Q 5363 -81 4706 456 
L 5000 819 
Q 5675 269 6294 -350 
L 5963 -681 
z
M 1944 738 
Q 2094 556 2281 413 
Q 1575 -356 375 -706 
Q 350 -481 200 -319 
Q 725 -181 1122 69 
Q 1519 319 1944 738 
z
M 3244 -169 
L 3244 1063 
L 869 881 
L 850 1181 
Q 1431 1325 2969 1988 
L 1119 1931 
L 1113 2231 
Q 1350 2263 1862 2497 
Q 2375 2731 2800 2988 
L 1094 2988 
Q 1169 4006 1094 5019 
L 5506 5019 
Q 5425 4006 5500 2988 
L 3431 2988 
Q 3475 2931 3525 2875 
Q 2856 2494 2281 2256 
L 3388 2269 
L 3650 2288 
Q 4338 2606 4650 2800 
Q 4744 2563 4881 2344 
Q 4644 2225 3975 1956 
L 2269 1281 
L 4444 1425 
L 4813 1469 
L 4681 1588 
L 4988 1938 
Q 5481 1500 5863 963 
L 5481 694 
Q 5300 950 5081 1188 
L 4463 1163 
L 3669 1100 
L 3669 -250 
Q 3669 -444 3488 -594 
Q 3225 -819 2569 -813 
Q 2638 -513 2431 -294 
Q 2619 -319 2900 -322 
Q 3181 -325 3212 -294 
Q 3244 -263 3244 -169 
z
M 3513 4131 
L 5081 4131 
L 5081 4725 
L 3513 4725 
L 3513 4131 
z
M 3088 4131 
L 3088 4725 
L 1519 4725 
L 1519 4131 
L 3088 4131 
z
M 3513 3856 
L 3513 3288 
L 5081 3288 
L 5081 3856 
L 3513 3856 
z
M 3088 3856 
L 1519 3856 
L 1519 3288 
L 3088 3288 
L 3088 3856 
z
" transform="scale(0.015625)"/>
       <path id="WenQuanYiZenHei-79ef" d="M 5275 1238 
Q 5869 375 6388 -544 
L 5975 -775 
Q 5469 125 4888 969 
L 5275 1238 
z
M 3688 1225 
Q 3906 1138 4144 1094 
Q 3856 25 2900 -888 
Q 2775 -700 2563 -625 
Q 2950 -269 3209 150 
Q 3469 569 3688 1225 
z
M 3900 1650 
L 3475 1650 
L 3475 4831 
L 5806 4825 
L 5806 1650 
L 5381 1650 
L 5381 1931 
L 3900 1931 
L 3900 1650 
z
M 5381 4519 
L 3900 4519 
L 3900 2244 
L 5381 2244 
L 5381 4519 
z
M 2981 4275 
L 1969 4200 
L 1969 3275 
L 2313 3275 
Q 2663 3275 3006 3294 
Q 2988 3125 3006 2956 
Q 2663 2969 2313 2969 
L 1969 2969 
L 1969 2481 
L 2125 2594 
L 2869 1750 
L 2463 1456 
L 1969 2006 
L 1969 156 
Q 1969 -281 1994 -713 
Q 1731 -688 1469 -713 
Q 1494 -281 1494 156 
L 1494 1950 
L 1469 1906 
Q 1256 1538 856 950 
L 469 394 
Q 300 538 31 569 
Q 519 1225 1000 2119 
L 1469 2969 
L 856 2969 
Q 506 2969 163 2956 
Q 181 3125 163 3294 
Q 506 3275 856 3275 
L 1494 3275 
L 1494 4156 
L 588 4038 
L 313 4444 
Q 519 4444 719 4425 
Q 994 4413 1575 4494 
Q 2388 4600 2913 4738 
Q 2919 4488 2981 4275 
z
" transform="scale(0.015625)"/>
       <path id="WenQuanYiZenHei-5206" d="M 2088 2169 
Q 1688 2169 1288 2150 
Q 1306 2363 1288 2581 
Q 1688 2563 2088 2563 
L 4819 2563 
L 4819 -169 
Q 4819 -425 4619 -600 
Q 4350 -844 3613 -838 
Q 3688 -513 3456 -269 
Q 3669 -294 3956 -297 
Q 4244 -300 4297 -259 
Q 4350 -219 4350 -31 
L 4350 2169 
L 2931 2169 
Q 2875 1131 2315 309 
Q 1756 -513 881 -813 
Q 681 -519 338 -406 
Q 706 -375 1078 -165 
Q 1450 44 1753 375 
Q 2056 706 2247 1181 
Q 2438 1656 2431 2169 
L 2088 2169 
z
M 6150 2500 
Q 5900 2381 5788 2131 
Q 4863 2606 4306 3450 
Q 3819 4175 3550 5050 
L 3956 5163 
Q 4356 3781 5294 3031 
Q 5694 2719 6150 2500 
z
M 2106 5050 
Q 2369 4944 2650 4900 
Q 2350 4044 1863 3313 
Q 1306 2469 456 1913 
Q 331 2175 75 2313 
Q 831 2769 1338 3381 
Q 1550 3638 1669 3881 
Q 1931 4438 2106 5050 
z
" transform="scale(0.015625)"/>
       <path id="WenQuanYiZenHei-5e03" d="M 3850 -769 
Q 3600 -744 3344 -769 
Q 3369 -306 3369 163 
L 3369 2319 
L 2094 2319 
L 2094 813 
Q 2094 350 2119 -113 
Q 1863 -88 1613 -113 
Q 1638 350 1638 813 
L 1638 1869 
Q 1094 1206 475 706 
Q 325 950 63 1063 
Q 1000 1800 1631 2625 
L 1638 2694 
L 1688 2694 
Q 2075 3206 2313 3775 
L 1169 3775 
Q 788 3775 406 3756 
Q 431 3963 406 4169 
Q 788 4150 1169 4150 
L 2475 4150 
Q 2719 4756 2838 5150 
Q 3094 5044 3369 4988 
Q 3213 4563 3025 4150 
L 5375 4150 
Q 5756 4150 6138 4169 
Q 6113 3963 6138 3756 
Q 5756 3775 5375 3775 
L 2850 3775 
Q 2569 3206 2238 2694 
L 3369 2694 
Q 3363 3038 3344 3381 
Q 3600 3356 3850 3381 
Q 3831 3038 3831 2694 
L 5544 2694 
L 5544 463 
Q 5544 281 5444 150 
Q 5344 19 5181 -50 
Q 4881 -175 4481 -175 
Q 4544 138 4344 388 
Q 4519 363 4766 356 
Q 5013 350 5050 387 
Q 5088 425 5088 569 
L 5088 2319 
L 3825 2319 
L 3825 163 
Q 3825 -306 3850 -769 
z
" transform="scale(0.015625)"/>
       <path id="WenQuanYiZenHei-51fd" d="M 5819 -769 
Q 5575 -744 5338 -769 
Q 5350 -531 5356 -288 
L 425 -288 
L 425 2538 
Q 425 2981 400 3425 
Q 644 3400 881 3425 
Q 863 2981 863 2538 
L 863 44 
L 5356 44 
L 5356 2569 
Q 5356 3013 5338 3456 
Q 5575 3431 5819 3456 
Q 5800 3013 5800 2569 
L 5800 119 
Q 5800 -325 5819 -769 
z
M 3394 775 
Q 3394 506 3213 331 
Q 2931 81 2263 106 
Q 2331 413 2119 644 
Q 2313 619 2578 619 
Q 2844 619 2900 662 
Q 2956 706 2956 938 
L 2956 2050 
Q 2275 1638 1856 1363 
L 1244 938 
Q 1169 1213 963 1413 
Q 1481 1575 1912 1794 
Q 2344 2013 2956 2381 
L 2956 4000 
L 4306 4706 
L 1438 4706 
Q 1100 4706 763 4688 
Q 781 4869 763 5050 
Q 1100 5038 1438 5038 
L 5263 5038 
L 5319 4650 
Q 5056 4594 4813 4475 
L 3394 3738 
L 3394 2281 
L 3463 2375 
L 4306 1756 
L 5119 1094 
L 4806 725 
L 4006 1375 
L 3394 1825 
L 3394 775 
z
M 4744 3613 
Q 4888 3419 5075 3263 
Q 4519 2738 3663 2344 
Q 3600 2563 3419 2713 
Q 3856 2900 4294 3238 
L 4744 3613 
z
M 2238 2313 
Q 1763 2819 1219 3256 
L 1525 3631 
Q 2094 3175 2594 2644 
L 2238 2313 
z
" transform="scale(0.015625)"/>
       <path id="WenQuanYiZenHei-6570" d="M 263 1500 
Q 275 1663 263 1819 
Q 550 1806 844 1806 
L 1169 1806 
Q 1269 2100 1356 2400 
Q 1594 2313 1844 2275 
L 1638 1806 
L 2763 1806 
Q 2731 925 2175 244 
Q 2500 -38 2806 -350 
Q 2588 -481 2400 -656 
Q 2163 -344 1875 -69 
Q 1275 -600 488 -719 
Q 394 -481 225 -288 
Q 969 -269 1550 206 
Q 1169 506 744 725 
Q 919 1113 1069 1519 
L 263 1500 
z
M 2063 2375 
Q 1838 2394 1606 2375 
Q 1625 2800 1625 3225 
L 1625 3538 
Q 1475 3213 1206 2866 
Q 938 2519 388 2038 
Q 275 2225 69 2313 
Q 644 2788 1113 3538 
L 756 3538 
Q 463 3538 169 3525 
Q 188 3681 169 3844 
L 1031 3825 
L 331 4675 
L 688 4969 
L 1431 4063 
L 1144 3825 
L 1625 3825 
L 1625 4244 
Q 1625 4669 1606 5094 
Q 1838 5075 2063 5094 
Q 2044 4669 2044 4244 
L 2044 4044 
Q 2369 4463 2681 5056 
Q 2875 4925 3088 4844 
Q 2844 4363 2400 3825 
L 3156 3844 
Q 3138 3681 3156 3525 
L 2325 3538 
L 2981 2738 
L 2625 2444 
L 2044 3156 
Q 2044 2763 2063 2375 
z
M 1844 506 
Q 2213 950 2306 1519 
L 1519 1519 
L 1275 906 
Q 1569 719 1844 506 
z
M 2044 3538 
L 2044 3400 
L 2213 3538 
L 2044 3538 
z
M 2044 3825 
L 2213 3825 
Q 2138 3888 2044 3919 
L 2044 3825 
z
M 3825 5031 
Q 4038 4963 4288 4944 
Q 4175 4400 4031 3869 
L 4006 3781 
L 5381 3781 
Q 5688 3781 5994 3800 
Q 5981 3600 5994 3406 
L 5363 3419 
Q 5300 1925 4775 888 
Q 5319 106 6213 -306 
Q 6013 -438 5931 -694 
Q 5100 -288 4575 519 
Q 4000 -469 3006 -906 
Q 2950 -613 2781 -438 
Q 3794 -44 4344 913 
Q 3863 1806 3750 2963 
Q 3550 2381 3200 1806 
Q 3044 1981 2788 2025 
Q 3025 2406 3287 2937 
Q 3550 3469 3662 3991 
Q 3775 4513 3825 5031 
z
M 4069 3419 
Q 4081 2794 4215 2244 
Q 4350 1694 4538 1300 
Q 4913 2181 4938 3419 
L 4069 3419 
z
" transform="scale(0.015625)"/>
      </defs>
      <use xlink:href="#WenQuanYiZenHei-7d2f"/>
      <use xlink:href="#WenQuanYiZenHei-79ef" x="100"/>
      <use xlink:href="#WenQuanYiZenHei-5206" x="200"/>
      <use xlink:href="#WenQuanYiZenHei-5e03" x="300"/>
      <use xlink:href="#WenQuanYiZenHei-51fd" x="400"/>
      <use xlink:href="#WenQuanYiZenHei-6570" x="500"/>
     </g>
    </g>
   </g>
   <g id="line2d_31">
    <path d="M 61.836839 172.68 
L 69.3402 171.439055 
L 85.054091 170.19811 
L 95.853437 166.475276 
L 96.248694 165.234331 
L 98.728893 161.511496 
L 100.158211 160.270551 
L 102.158767 159.029606 
L 103.456613 157.788661 
L 104.941216 156.547717 
L 107.386718 155.306772 
L 113.716819 154.065827 
L 113.734403 152.824882 
L 120.865389 150.342992 
L 120.882359 149.102047 
L 121.652384 147.861102 
L 122.043389 146.620157 
L 122.698898 145.379213 
L 122.760764 144.138268 
L 124.016767 141.656378 
L 124.595041 140.415433 
L 128.011397 139.174488 
L 132.657532 136.692598 
L 133.500671 135.451654 
L 134.04293 134.210709 
L 135.735824 132.969764 
L 136.181302 131.728819 
L 138.80078 130.487874 
L 139.559881 129.246929 
L 141.469249 128.005984 
L 141.575573 125.524094 
L 142.970218 124.28315 
L 145.142644 123.042205 
L 145.705837 120.560315 
L 149.38961 119.31937 
L 149.953343 118.078425 
L 151.805276 116.83748 
L 152.205909 115.596535 
L 159.389999 113.114646 
L 159.79286 111.873701 
L 161.089714 109.391811 
L 161.230474 108.150866 
L 164.489949 106.909921 
L 165.805287 105.668976 
L 165.839499 104.428031 
L 167.282514 103.187087 
L 168.376765 101.946142 
L 171.27197 99.464252 
L 173.082137 98.223307 
L 174.228781 96.982362 
L 177.715458 95.741417 
L 177.925711 94.500472 
L 180.657957 93.259528 
L 181.44079 92.018583 
L 183.633141 90.777638 
L 183.77634 89.536693 
L 184.047118 88.295748 
L 184.121858 87.054803 
L 184.671866 85.813858 
L 185.453701 84.572913 
L 185.988891 83.331969 
L 187.140562 82.091024 
L 187.601981 80.850079 
L 188.420493 79.609134 
L 190.413399 78.368189 
L 191.43392 77.127244 
L 191.475254 74.645354 
L 192.723697 73.404409 
L 194.614118 72.163465 
L 195.161427 69.681575 
L 196.640761 68.44063 
L 197.834117 67.199685 
L 199.286469 65.95874 
L 200.556607 64.717795 
L 201.528776 63.47685 
L 203.114167 62.235906 
L 203.433035 60.994961 
L 205.069479 59.754016 
L 206.372517 57.272126 
L 210.672446 56.031181 
L 215.530698 54.790236 
L 216.085807 53.549291 
L 216.404502 52.308346 
L 217.275101 51.067402 
L 217.688945 49.826457 
L 218.388553 48.585512 
L 219.350816 47.344567 
L 220.112621 46.103622 
L 221.991915 44.862677 
L 223.164384 43.621732 
L 223.288518 42.380787 
L 223.894588 41.139843 
L 224.130168 39.898898 
L 225.422601 37.417008 
L 226.278321 34.935118 
L 226.992261 33.694173 
L 241.567371 31.212283 
L 244.401606 29.971339 
L 253.719553 28.730394 
L 261.549633 27.489449 
L 275.171147 25.007559 
L 275.290231 23.766614 
L 278.997968 22.525669 
L 283.71028 21.284724 
L 286.903464 20.04378 
L 296.91466 18.802835 
L 302.179925 17.56189 
L 308.248773 16.320945 
L 333.207533 15.08 
L 333.207533 15.08 
" clip-path="url(#p027193b244)" style="fill: none; stroke: #f97306; stroke-width: 3; stroke-linecap: square"/>
   </g>
   <g id="line2d_32">
    <path d="M 61.836839 172.68 
L 66.203033 171.439055 
L 84.840886 170.19811 
L 85.054091 168.957165 
L 95.853437 166.475276 
L 96.248694 165.234331 
L 97.887168 163.993386 
L 100.158211 161.511496 
L 100.607247 160.270551 
L 102.966075 159.029606 
L 105.476161 156.547717 
L 107.386718 155.306772 
L 113.734403 154.065827 
L 116.687034 152.824882 
L 116.781787 151.583937 
L 117.278056 150.342992 
L 117.961121 149.102047 
L 119.922796 147.861102 
L 120.572002 146.620157 
L 121.652384 145.379213 
L 121.917569 144.138268 
L 122.407852 142.897323 
L 122.760764 141.656378 
L 129.815878 140.415433 
L 130.334763 139.174488 
L 132.657532 137.933543 
L 133.500671 136.692598 
L 134.806686 135.451654 
L 135.735824 134.210709 
L 139.559881 132.969764 
L 140.882376 131.728819 
L 141.469249 129.246929 
L 141.487463 128.005984 
L 143.151981 126.765039 
L 143.906387 125.524094 
L 145.142644 124.28315 
L 145.480107 121.80126 
L 145.705837 120.560315 
L 145.772653 119.31937 
L 149.38961 118.078425 
L 149.953343 116.83748 
L 151.805276 115.596535 
L 151.878691 114.355591 
L 152.205909 113.114646 
L 158.107126 111.873701 
L 158.780203 110.632756 
L 160.678447 109.391811 
L 163.047693 108.150866 
L 166.229536 106.909921 
L 167.282514 105.668976 
L 168.005869 104.428031 
L 168.576234 103.187087 
L 169.749713 101.946142 
L 169.921922 100.705197 
L 172.471674 99.464252 
L 174.228781 98.223307 
L 176.413009 96.982362 
L 177.715458 95.741417 
L 177.921131 94.500472 
L 177.925711 93.259528 
L 179.504804 92.018583 
L 183.199801 89.536693 
L 183.633141 88.295748 
L 183.77634 87.054803 
L 187.635403 85.813858 
L 188.210516 84.572913 
L 188.420493 83.331969 
L 191.43392 80.850079 
L 191.434376 79.609134 
L 192.723697 78.368189 
L 193.082859 75.886299 
L 194.614118 74.645354 
L 194.899398 73.404409 
L 194.918607 72.163465 
L 195.161427 70.92252 
L 197.274724 69.681575 
L 197.63103 68.44063 
L 197.834117 67.199685 
L 199.286469 65.95874 
L 200.556607 64.717795 
L 205.494931 62.235906 
L 209.303966 60.994961 
L 210.672446 59.754016 
L 213.997942 58.513071 
L 214.558378 57.272126 
L 214.751786 56.031181 
L 215.510286 54.790236 
L 215.530698 53.549291 
L 216.085807 51.067402 
L 216.404502 49.826457 
L 217.246135 48.585512 
L 217.780266 47.344567 
L 218.04284 46.103622 
L 219.350816 44.862677 
L 223.155469 43.621732 
L 223.267184 41.139843 
L 223.894588 39.898898 
L 225.901802 37.417008 
L 228.567463 36.176063 
L 230.815487 33.694173 
L 234.240054 32.453228 
L 241.567371 31.212283 
L 251.163637 29.971339 
L 253.719553 28.730394 
L 254.106318 27.489449 
L 267.844297 26.248504 
L 268.074747 25.007559 
L 275.290231 23.766614 
L 278.997968 22.525669 
L 283.71028 21.284724 
L 294.315036 20.04378 
L 296.91466 18.802835 
L 302.179925 17.56189 
L 312.316244 16.320945 
L 341.509567 15.08 
L 341.509567 15.08 
" clip-path="url(#p027193b244)" style="fill: none; stroke-dasharray: 11.1,4.8; stroke-dashoffset: 0; stroke: #0343df; stroke-width: 3"/>
   </g>
   <g id="patch_3">
    <path d="M 47.853203 180.56 
L 47.853203 7.2 
" style="fill: none; stroke: #000000; stroke-width: 0.8; stroke-linejoin: miter; stroke-linecap: square"/>
   </g>
   <g id="patch_4">
    <path d="M 47.853203 180.56 
L 355.493203 180.56 
" style="fill: none; stroke: #000000; stroke-width: 0.8; stroke-linejoin: miter; stroke-linecap: square"/>
   </g>
   <g id="legend_1">
    <g id="line2d_33">
     <path d="M 58.653203 23.64 
L 76.653203 23.64 
L 94.653203 23.64 
" style="fill: none; stroke: #f97306; stroke-width: 3; stroke-linecap: square"/>
    </g>
    <g id="text_19">
     <!-- LetFlow+PAN -->
     <g transform="translate(104.253203 29.28) scale(0.12 -0.12)">
      <defs>
       <path id="DejaVuSans-4c" d="M 628 4666 
L 1259 4666 
L 1259 531 
L 3531 531 
L 3531 0 
L 628 0 
L 628 4666 
z
" transform="scale(0.015625)"/>
       <path id="DejaVuSans-74" d="M 1172 4494 
L 1172 3500 
L 2356 3500 
L 2356 3053 
L 1172 3053 
L 1172 1153 
Q 1172 725 1289 603 
Q 1406 481 1766 481 
L 2356 481 
L 2356 0 
L 1766 0 
Q 1100 0 847 248 
Q 594 497 594 1153 
L 594 3053 
L 172 3053 
L 172 3500 
L 594 3500 
L 594 4494 
L 1172 4494 
z
" transform="scale(0.015625)"/>
       <path id="DejaVuSans-46" d="M 628 4666 
L 3309 4666 
L 3309 4134 
L 1259 4134 
L 1259 2759 
L 3109 2759 
L 3109 2228 
L 1259 2228 
L 1259 0 
L 628 0 
L 628 4666 
z
" transform="scale(0.015625)"/>
       <path id="DejaVuSans-6c" d="M 603 4863 
L 1178 4863 
L 1178 0 
L 603 0 
L 603 4863 
z
" transform="scale(0.015625)"/>
       <path id="DejaVuSans-6f" d="M 1959 3097 
Q 1497 3097 1228 2736 
Q 959 2375 959 1747 
Q 959 1119 1226 758 
Q 1494 397 1959 397 
Q 2419 397 2687 759 
Q 2956 1122 2956 1747 
Q 2956 2369 2687 2733 
Q 2419 3097 1959 3097 
z
M 1959 3584 
Q 2709 3584 3137 3096 
Q 3566 2609 3566 1747 
Q 3566 888 3137 398 
Q 2709 -91 1959 -91 
Q 1206 -91 779 398 
Q 353 888 353 1747 
Q 353 2609 779 3096 
Q 1206 3584 1959 3584 
z
" transform="scale(0.015625)"/>
       <path id="DejaVuSans-77" d="M 269 3500 
L 844 3500 
L 1563 769 
L 2278 3500 
L 2956 3500 
L 3675 769 
L 4391 3500 
L 4966 3500 
L 4050 0 
L 3372 0 
L 2619 2869 
L 1863 0 
L 1184 0 
L 269 3500 
z
" transform="scale(0.015625)"/>
       <path id="DejaVuSans-2b" d="M 2944 4013 
L 2944 2272 
L 4684 2272 
L 4684 1741 
L 2944 1741 
L 2944 0 
L 2419 0 
L 2419 1741 
L 678 1741 
L 678 2272 
L 2419 2272 
L 2419 4013 
L 2944 4013 
z
" transform="scale(0.015625)"/>
       <path id="DejaVuSans-50" d="M 1259 4147 
L 1259 2394 
L 2053 2394 
Q 2494 2394 2734 2622 
Q 2975 2850 2975 3272 
Q 2975 3691 2734 3919 
Q 2494 4147 2053 4147 
L 1259 4147 
z
M 628 4666 
L 2053 4666 
Q 2838 4666 3239 4311 
Q 3641 3956 3641 3272 
Q 3641 2581 3239 2228 
Q 2838 1875 2053 1875 
L 1259 1875 
L 1259 0 
L 628 0 
L 628 4666 
z
" transform="scale(0.015625)"/>
       <path id="DejaVuSans-41" d="M 2188 4044 
L 1331 1722 
L 3047 1722 
L 2188 4044 
z
M 1831 4666 
L 2547 4666 
L 4325 0 
L 3669 0 
L 3244 1197 
L 1141 1197 
L 716 0 
L 50 0 
L 1831 4666 
z
" transform="scale(0.015625)"/>
       <path id="DejaVuSans-4e" d="M 628 4666 
L 1478 4666 
L 3547 763 
L 3547 4666 
L 4159 4666 
L 4159 0 
L 3309 0 
L 1241 3903 
L 1241 0 
L 628 0 
L 628 4666 
z
" transform="scale(0.015625)"/>
      </defs>
      <use xlink:href="#DejaVuSans-4c"/>
      <use xlink:href="#DejaVuSans-65" x="53.962891"/>
      <use xlink:href="#DejaVuSans-74" x="115.486328"/>
      <use xlink:href="#DejaVuSans-46" x="154.695312"/>
      <use xlink:href="#DejaVuSans-6c" x="212.214844"/>
      <use xlink:href="#DejaVuSans-6f" x="239.998047"/>
      <use xlink:href="#DejaVuSans-77" x="301.179688"/>
      <use xlink:href="#DejaVuSans-2b" x="382.966797"/>
      <use xlink:href="#DejaVuSans-50" x="466.755859"/>
      <use xlink:href="#DejaVuSans-41" x="520.683594"/>
      <use xlink:href="#DejaVuSans-4e" x="589.091797"/>
     </g>
    </g>
    <g id="line2d_34">
     <path d="M 58.653203 41.28 
L 76.653203 41.28 
L 94.653203 41.28 
" style="fill: none; stroke-dasharray: 11.1,4.8; stroke-dashoffset: 0; stroke: #0343df; stroke-width: 3"/>
    </g>
    <g id="text_20">
     <!-- LetFlow -->
     <g transform="translate(104.253203 46.92) scale(0.12 -0.12)">
      <use xlink:href="#DejaVuSans-4c"/>
      <use xlink:href="#DejaVuSans-65" x="53.962891"/>
      <use xlink:href="#DejaVuSans-74" x="115.486328"/>
      <use xlink:href="#DejaVuSans-46" x="154.695312"/>
      <use xlink:href="#DejaVuSans-6c" x="212.214844"/>
      <use xlink:href="#DejaVuSans-6f" x="239.998047"/>
      <use xlink:href="#DejaVuSans-77" x="301.179688"/>
     </g>
    </g>
   </g>
  </g>
 </g>
 <defs>
  <clipPath id="p027193b244">
   <rect x="47.853203" y="7.2" width="307.64" height="173.36"/>
  </clipPath>
 </defs>
</svg>
