<?xml version="1.0" encoding="utf-8" standalone="no"?>
<!DOCTYPE svg PUBLIC "-//W3C//DTD SVG 1.1//EN"
  "http://www.w3.org/Graphics/SVG/1.1/DTD/svg11.dtd">
<svg xmlns:xlink="http://www.w3.org/1999/xlink" width="289.181641pt" height="185.961586pt" viewBox="0 0 289.181641 185.961586" xmlns="http://www.w3.org/2000/svg" version="1.1">
 <metadata>
  <rdf:RDF xmlns:dc="http://purl.org/dc/elements/1.1/" xmlns:cc="http://creativecommons.org/ns#" xmlns:rdf="http://www.w3.org/1999/02/22-rdf-syntax-ns#">
   <cc:Work>
    <dc:type rdf:resource="http://purl.org/dc/dcmitype/StillImage"/>
    <dc:date>2024-04-10T00:39:25.101633</dc:date>
    <dc:format>image/svg+xml</dc:format>
    <dc:creator>
     <cc:Agent>
      <dc:title>Matplotlib v3.8.2, https://matplotlib.org/</dc:title>
     </cc:Agent>
    </dc:creator>
   </cc:Work>
  </rdf:RDF>
 </metadata>
 <defs>
  <style type="text/css">*{stroke-linejoin: round; stroke-linecap: butt}</style>
 </defs>
 <g id="figure_1">
  <g id="patch_1">
   <path d="M 0 185.961586 
L 289.181641 185.961586 
L 289.181641 0 
L 0 0 
z
" style="fill: #ffffff"/>
  </g>
  <g id="axes_1">
   <g id="patch_2">
    <path d="M 45.956641 145.33932 
L 254.912891 145.33932 
L 254.912891 30.22322 
L 45.956641 30.22322 
z
" style="fill: #ffffff"/>
   </g>
   <g id="matplotlib.axis_1">
    <g id="xtick_1">
     <g id="line2d_1">
      <path d="M 55.436816 145.33932 
L 55.436816 30.22322 
" clip-path="url(#pd9f50dbb31)" style="fill: none; stroke: #b0b0b0; stroke-opacity: 0.5; stroke-width: 0.8; stroke-linecap: square"/>
     </g>
     <g id="line2d_2">
      <defs>
       <path id="m892d2252fe" d="M 0 0 
L 0 3.5 
" style="stroke: #000000; stroke-width: 0.8"/>
      </defs>
      <g>
       <use xlink:href="#m892d2252fe" x="55.436816" y="145.33932" style="stroke: #000000; stroke-width: 0.8"/>
      </g>
     </g>
     <g id="text_1">
      <!-- 0 -->
      <g transform="translate(52.255566 159.937758) scale(0.1 -0.1)">
       <defs>
        <path id="DejaVuSans-30" d="M 2034 4250 
Q 1547 4250 1301 3770 
Q 1056 3291 1056 2328 
Q 1056 1369 1301 889 
Q 1547 409 2034 409 
Q 2525 409 2770 889 
Q 3016 1369 3016 2328 
Q 3016 3291 2770 3770 
Q 2525 4250 2034 4250 
z
M 2034 4750 
Q 2819 4750 3233 4129 
Q 3647 3509 3647 2328 
Q 3647 1150 3233 529 
Q 2819 -91 2034 -91 
Q 1250 -91 836 529 
Q 422 1150 422 2328 
Q 422 3509 836 4129 
Q 1250 4750 2034 4750 
z
" transform="scale(0.015625)"/>
       </defs>
       <use xlink:href="#DejaVuSans-30"/>
      </g>
     </g>
    </g>
    <g id="xtick_2">
     <g id="line2d_3">
      <path d="M 92.711398 145.33932 
L 92.711398 30.22322 
" clip-path="url(#pd9f50dbb31)" style="fill: none; stroke: #b0b0b0; stroke-opacity: 0.5; stroke-width: 0.8; stroke-linecap: square"/>
     </g>
     <g id="line2d_4">
      <g>
       <use xlink:href="#m892d2252fe" x="92.711398" y="145.33932" style="stroke: #000000; stroke-width: 0.8"/>
      </g>
     </g>
     <g id="text_2">
      <!-- 100 -->
      <g transform="translate(83.167648 159.937758) scale(0.1 -0.1)">
       <defs>
        <path id="DejaVuSans-31" d="M 794 531 
L 1825 531 
L 1825 4091 
L 703 3866 
L 703 4441 
L 1819 4666 
L 2450 4666 
L 2450 531 
L 3481 531 
L 3481 0 
L 794 0 
L 794 531 
z
" transform="scale(0.015625)"/>
       </defs>
       <use xlink:href="#DejaVuSans-31"/>
       <use xlink:href="#DejaVuSans-30" x="63.623047"/>
       <use xlink:href="#DejaVuSans-30" x="127.246094"/>
      </g>
     </g>
    </g>
    <g id="xtick_3">
     <g id="line2d_5">
      <path d="M 129.985981 145.33932 
L 129.985981 30.22322 
" clip-path="url(#pd9f50dbb31)" style="fill: none; stroke: #b0b0b0; stroke-opacity: 0.5; stroke-width: 0.8; stroke-linecap: square"/>
     </g>
     <g id="line2d_6">
      <g>
       <use xlink:href="#m892d2252fe" x="129.985981" y="145.33932" style="stroke: #000000; stroke-width: 0.8"/>
      </g>
     </g>
     <g id="text_3">
      <!-- 200 -->
      <g transform="translate(120.442231 159.937758) scale(0.1 -0.1)">
       <defs>
        <path id="DejaVuSans-32" d="M 1228 531 
L 3431 531 
L 3431 0 
L 469 0 
L 469 531 
Q 828 903 1448 1529 
Q 2069 2156 2228 2338 
Q 2531 2678 2651 2914 
Q 2772 3150 2772 3378 
Q 2772 3750 2511 3984 
Q 2250 4219 1831 4219 
Q 1534 4219 1204 4116 
Q 875 4013 500 3803 
L 500 4441 
Q 881 4594 1212 4672 
Q 1544 4750 1819 4750 
Q 2544 4750 2975 4387 
Q 3406 4025 3406 3419 
Q 3406 3131 3298 2873 
Q 3191 2616 2906 2266 
Q 2828 2175 2409 1742 
Q 1991 1309 1228 531 
z
" transform="scale(0.015625)"/>
       </defs>
       <use xlink:href="#DejaVuSans-32"/>
       <use xlink:href="#DejaVuSans-30" x="63.623047"/>
       <use xlink:href="#DejaVuSans-30" x="127.246094"/>
      </g>
     </g>
    </g>
    <g id="xtick_4">
     <g id="line2d_7">
      <path d="M 167.260563 145.33932 
L 167.260563 30.22322 
" clip-path="url(#pd9f50dbb31)" style="fill: none; stroke: #b0b0b0; stroke-opacity: 0.5; stroke-width: 0.8; stroke-linecap: square"/>
     </g>
     <g id="line2d_8">
      <g>
       <use xlink:href="#m892d2252fe" x="167.260563" y="145.33932" style="stroke: #000000; stroke-width: 0.8"/>
      </g>
     </g>
     <g id="text_4">
      <!-- 300 -->
      <g transform="translate(157.716813 159.937758) scale(0.1 -0.1)">
       <defs>
        <path id="DejaVuSans-33" d="M 2597 2516 
Q 3050 2419 3304 2112 
Q 3559 1806 3559 1356 
Q 3559 666 3084 287 
Q 2609 -91 1734 -91 
Q 1441 -91 1130 -33 
Q 819 25 488 141 
L 488 750 
Q 750 597 1062 519 
Q 1375 441 1716 441 
Q 2309 441 2620 675 
Q 2931 909 2931 1356 
Q 2931 1769 2642 2001 
Q 2353 2234 1838 2234 
L 1294 2234 
L 1294 2753 
L 1863 2753 
Q 2328 2753 2575 2939 
Q 2822 3125 2822 3475 
Q 2822 3834 2567 4026 
Q 2313 4219 1838 4219 
Q 1578 4219 1281 4162 
Q 984 4106 628 3988 
L 628 4550 
Q 988 4650 1302 4700 
Q 1616 4750 1894 4750 
Q 2613 4750 3031 4423 
Q 3450 4097 3450 3541 
Q 3450 3153 3228 2886 
Q 3006 2619 2597 2516 
z
" transform="scale(0.015625)"/>
       </defs>
       <use xlink:href="#DejaVuSans-33"/>
       <use xlink:href="#DejaVuSans-30" x="63.623047"/>
       <use xlink:href="#DejaVuSans-30" x="127.246094"/>
      </g>
     </g>
    </g>
    <g id="xtick_5">
     <g id="line2d_9">
      <path d="M 204.535146 145.33932 
L 204.535146 30.22322 
" clip-path="url(#pd9f50dbb31)" style="fill: none; stroke: #b0b0b0; stroke-opacity: 0.5; stroke-width: 0.8; stroke-linecap: square"/>
     </g>
     <g id="line2d_10">
      <g>
       <use xlink:href="#m892d2252fe" x="204.535146" y="145.33932" style="stroke: #000000; stroke-width: 0.8"/>
      </g>
     </g>
     <g id="text_5">
      <!-- 400 -->
      <g transform="translate(194.991396 159.937758) scale(0.1 -0.1)">
       <defs>
        <path id="DejaVuSans-34" d="M 2419 4116 
L 825 1625 
L 2419 1625 
L 2419 4116 
z
M 2253 4666 
L 3047 4666 
L 3047 1625 
L 3713 1625 
L 3713 1100 
L 3047 1100 
L 3047 0 
L 2419 0 
L 2419 1100 
L 313 1100 
L 313 1709 
L 2253 4666 
z
" transform="scale(0.015625)"/>
       </defs>
       <use xlink:href="#DejaVuSans-34"/>
       <use xlink:href="#DejaVuSans-30" x="63.623047"/>
       <use xlink:href="#DejaVuSans-30" x="127.246094"/>
      </g>
     </g>
    </g>
    <g id="xtick_6">
     <g id="line2d_11">
      <path d="M 241.809728 145.33932 
L 241.809728 30.22322 
" clip-path="url(#pd9f50dbb31)" style="fill: none; stroke: #b0b0b0; stroke-opacity: 0.5; stroke-width: 0.8; stroke-linecap: square"/>
     </g>
     <g id="line2d_12">
      <g>
       <use xlink:href="#m892d2252fe" x="241.809728" y="145.33932" style="stroke: #000000; stroke-width: 0.8"/>
      </g>
     </g>
     <g id="text_6">
      <!-- 500 -->
      <g transform="translate(232.265978 159.937758) scale(0.1 -0.1)">
       <defs>
        <path id="DejaVuSans-35" d="M 691 4666 
L 3169 4666 
L 3169 4134 
L 1269 4134 
L 1269 2991 
Q 1406 3038 1543 3061 
Q 1681 3084 1819 3084 
Q 2600 3084 3056 2656 
Q 3513 2228 3513 1497 
Q 3513 744 3044 326 
Q 2575 -91 1722 -91 
Q 1428 -91 1123 -41 
Q 819 9 494 109 
L 494 744 
Q 775 591 1075 516 
Q 1375 441 1709 441 
Q 2250 441 2565 725 
Q 2881 1009 2881 1497 
Q 2881 1984 2565 2268 
Q 2250 2553 1709 2553 
Q 1456 2553 1204 2497 
Q 953 2441 691 2322 
L 691 4666 
z
" transform="scale(0.015625)"/>
       </defs>
       <use xlink:href="#DejaVuSans-35"/>
       <use xlink:href="#DejaVuSans-30" x="63.623047"/>
       <use xlink:href="#DejaVuSans-30" x="127.246094"/>
      </g>
     </g>
    </g>
    <g id="text_7">
     <!-- 入口队列长度(KB) -->
     <g transform="translate(101.446484 176.624867) scale(0.125 -0.125)">
      <defs>
       <path id="WenQuanYiZenHei-5165" d="M 6175 -456 
Q 5900 -575 5763 -844 
Q 4356 -181 3956 1494 
Q 3831 2000 3722 2537 
Q 3613 3075 3488 3431 
Q 3175 2081 2406 921 
Q 1638 -238 456 -981 
Q 331 -706 75 -556 
Q 775 -131 1394 469 
Q 2413 1406 2819 3000 
Q 2981 3556 3044 3913 
L 3281 3881 
Q 3113 4175 2888 4406 
Q 2494 4806 2000 4863 
L 2050 5338 
Q 2738 5263 3238 4738 
Q 3769 4156 3981 3281 
Q 4088 2875 4172 2475 
Q 4256 2075 4387 1637 
Q 4519 1200 4731 813 
Q 5225 -31 6175 -456 
z
" transform="scale(0.015625)"/>
       <path id="WenQuanYiZenHei-53e3" d="M 1181 -781 
Q 925 -756 669 -781 
Q 688 -313 688 163 
L 694 4506 
L 5288 4506 
L 5288 -769 
L 4825 -769 
L 4825 219 
L 1156 219 
L 1156 163 
Q 1156 -313 1181 -781 
z
M 4825 4113 
L 1156 4113 
L 1156 619 
L 4825 619 
L 4825 4113 
z
" transform="scale(0.015625)"/>
       <path id="WenQuanYiZenHei-961f" d="M 3625 3381 
L 3625 4213 
Q 3625 4681 3600 5156 
Q 3856 5125 4113 5156 
Q 4088 4681 4088 4213 
L 4088 3344 
Q 4406 1538 5369 425 
Q 5750 -31 6213 -406 
Q 5944 -463 5769 -675 
Q 4563 319 3963 2138 
Q 3531 206 2069 -738 
Q 1894 -475 1581 -444 
Q 2531 50 3078 1019 
Q 3625 1988 3625 3381 
z
M 938 -850 
Q 669 -825 400 -850 
Q 425 -419 425 19 
L 419 4938 
L 2600 4938 
L 2600 4625 
Q 2475 4513 2388 4375 
L 1706 3238 
Q 2513 2319 2513 1156 
Q 2469 400 1806 163 
L 1619 88 
Q 1488 300 1306 481 
Q 1494 538 1669 606 
Q 2031 744 2063 1156 
Q 2063 1744 1841 2300 
Q 1619 2856 1194 3313 
L 1988 4625 
L 906 4625 
L 913 19 
Q 913 -419 938 -850 
z
" transform="scale(0.015625)"/>
       <path id="WenQuanYiZenHei-5217" d="M 1144 4569 
Q 781 4569 419 4550 
Q 438 4750 419 4944 
Q 781 4925 1144 4925 
L 2813 4925 
Q 3175 4925 3544 4944 
Q 3519 4750 3544 4550 
Q 3175 4569 2813 4569 
L 2106 4569 
Q 2038 4038 1863 3538 
L 3350 3538 
Q 3263 2125 2466 997 
Q 1669 -131 450 -688 
Q 281 -475 44 -331 
Q 1244 125 2025 1163 
Q 1681 1775 1281 2363 
Q 938 1856 481 1481 
Q 331 1719 75 1825 
Q 481 2144 862 2603 
Q 1244 3063 1384 3531 
Q 1525 4000 1606 4569 
L 1144 4569 
z
M 2331 1631 
Q 2744 2350 2863 3175 
L 1725 3175 
Q 1650 3000 1563 2831 
Q 1969 2244 2331 1631 
z
M 4806 -888 
Q 4863 -544 4669 -350 
Q 4863 -375 5103 -378 
Q 5344 -381 5419 -325 
Q 5494 -269 5494 38 
L 5494 4181 
Q 5494 4631 5475 5075 
Q 5713 5050 5950 5075 
Q 5925 4631 5925 4181 
L 5925 -106 
Q 5925 -656 5525 -800 
Q 5188 -913 4806 -888 
z
M 4669 756 
Q 4431 781 4194 756 
Q 4219 1200 4219 1650 
L 4219 3269 
Q 4219 3713 4194 4163 
Q 4431 4138 4669 4163 
Q 4650 3713 4650 3269 
L 4650 1650 
Q 4650 1200 4669 756 
z
" transform="scale(0.015625)"/>
       <path id="WenQuanYiZenHei-957f" d="M 1925 2238 
L 1925 -100 
L 3188 525 
L 3306 131 
Q 3144 81 2694 -162 
Q 2244 -406 1988 -563 
L 1575 -813 
L 1381 -388 
Q 1463 -150 1463 100 
L 1463 2238 
L 913 2238 
Q 513 2238 113 2219 
Q 138 2438 113 2650 
Q 513 2631 913 2631 
L 1463 2631 
L 1463 4313 
Q 1463 4788 1438 5256 
Q 1694 5231 1950 5256 
Q 1925 4788 1925 4313 
L 1925 3119 
Q 3100 3613 3744 4238 
Q 4175 4663 4563 5138 
Q 4763 4938 4994 4775 
Q 3550 3269 2156 2631 
L 5038 2631 
Q 5438 2631 5838 2650 
Q 5819 2438 5838 2219 
Q 5438 2238 5038 2238 
L 3206 2238 
Q 3769 1344 4444 775 
Q 5119 206 6131 -131 
Q 5900 -281 5813 -544 
Q 4713 -131 3944 650 
Q 3225 1369 2713 2238 
L 1925 2238 
z
" transform="scale(0.015625)"/>
       <path id="WenQuanYiZenHei-5ea6" d="M 1863 1488 
Q 1881 1663 1863 1838 
Q 2181 1819 2506 1819 
L 5231 1819 
Q 4863 869 4081 213 
Q 4381 25 4763 -94 
Q 5388 -294 6044 -238 
Q 5894 -450 5913 -706 
Q 4731 -769 3744 -44 
Q 2731 -725 1519 -731 
Q 1450 -475 1300 -256 
Q 2431 -356 3388 244 
Q 2825 763 2413 1500 
Q 2138 1500 1863 1488 
z
M 5400 3613 
Q 5725 3613 6050 3631 
Q 6031 3456 6050 3281 
Q 5725 3294 5400 3294 
L 4800 3294 
Q 4794 2600 4794 2275 
L 2531 2275 
Q 2531 2781 2531 3294 
L 2213 3294 
Q 1894 3294 1569 3281 
Q 1588 3456 1569 3631 
Q 1894 3613 2213 3613 
L 2531 3613 
Q 2531 3963 2513 4306 
Q 2750 4281 2988 4306 
Q 2975 3963 2969 3613 
L 4363 3613 
Q 4363 3944 4350 4275 
Q 4588 4250 4825 4275 
Q 4806 3944 4800 3613 
L 5400 3613 
z
M 1013 4738 
L 3413 4738 
L 3025 5069 
L 3331 5431 
L 3856 4981 
L 3650 4738 
L 5444 4738 
Q 5769 4738 6094 4750 
Q 6075 4575 6094 4400 
Q 5769 4419 5444 4419 
L 1444 4419 
L 1456 1550 
Q 1463 44 600 -738 
Q 444 -525 181 -481 
Q 1044 100 1019 1550 
L 1013 4738 
z
M 2863 1500 
Q 3250 869 3719 475 
Q 4256 906 4581 1500 
L 2863 1500 
z
M 2969 3294 
Q 2969 2956 2969 2594 
L 4356 2594 
Q 4363 2931 4363 3294 
L 2969 3294 
z
" transform="scale(0.015625)"/>
       <path id="WenQuanYiZenHei-28" d="M 1606 -1094 
L 1275 -1094 
Q 475 -100 338 1231 
Q 319 1438 319 1656 
Q 319 3031 1156 4244 
Q 1213 4313 1269 4388 
L 1600 4388 
Q 806 3169 794 1681 
Q 794 188 1606 -1094 
z
" transform="scale(0.015625)"/>
       <path id="WenQuanYiZenHei-4b" d="M 4019 0 
L 3413 0 
L 2106 2419 
L 1100 1169 
L 1100 0 
L 550 0 
L 550 4388 
L 1100 4388 
L 1100 1844 
L 3081 4388 
L 3675 4388 
L 2488 2856 
L 4019 0 
z
" transform="scale(0.015625)"/>
       <path id="WenQuanYiZenHei-42" d="M 3675 1213 
Q 3675 613 3250 281 
Q 2913 13 2313 0 
L 2169 0 
L 519 0 
L 519 4388 
L 2175 4388 
Q 2706 4388 2981 4244 
Q 3025 4219 3081 4188 
Q 3531 3881 3538 3319 
Q 3538 2744 3088 2463 
L 2888 2375 
Q 2831 2350 2763 2338 
L 2763 2325 
Q 3313 2206 3550 1725 
Q 3675 1494 3675 1213 
z
M 2994 3250 
Q 2994 3856 2313 3938 
Q 2225 3944 2131 3944 
L 1069 3944 
L 1069 2506 
L 1981 2506 
Q 2994 2506 2994 3250 
z
M 3125 1238 
Q 3125 1638 2838 1894 
Q 2825 1906 2806 1919 
Q 2588 2088 2113 2088 
L 1069 2088 
L 1069 469 
L 2144 469 
Q 2975 469 3106 1038 
Q 3125 1125 3125 1238 
z
" transform="scale(0.015625)"/>
       <path id="WenQuanYiZenHei-29" d="M 1600 1656 
Q 1600 306 869 -788 
Q 769 -950 644 -1094 
L 313 -1094 
Q 1125 188 1125 1681 
Q 1125 3169 338 4363 
Q 325 4375 319 4388 
L 650 4388 
Q 1525 3231 1594 1863 
Q 1600 1763 1600 1656 
z
" transform="scale(0.015625)"/>
      </defs>
      <use xlink:href="#WenQuanYiZenHei-5165"/>
      <use xlink:href="#WenQuanYiZenHei-53e3" x="100"/>
      <use xlink:href="#WenQuanYiZenHei-961f" x="200"/>
      <use xlink:href="#WenQuanYiZenHei-5217" x="300"/>
      <use xlink:href="#WenQuanYiZenHei-957f" x="400"/>
      <use xlink:href="#WenQuanYiZenHei-5ea6" x="500"/>
      <use xlink:href="#WenQuanYiZenHei-28" x="600"/>
      <use xlink:href="#WenQuanYiZenHei-4b" x="629.980469"/>
      <use xlink:href="#WenQuanYiZenHei-42" x="691.894531"/>
      <use xlink:href="#WenQuanYiZenHei-29" x="753.808594"/>
     </g>
    </g>
   </g>
   <g id="matplotlib.axis_2">
    <g id="ytick_1">
     <g id="line2d_13">
      <path d="M 45.956641 127.417315 
L 254.912891 127.417315 
" clip-path="url(#pd9f50dbb31)" style="fill: none; stroke: #b0b0b0; stroke-opacity: 0.5; stroke-width: 0.8; stroke-linecap: square"/>
     </g>
     <g id="line2d_14">
      <defs>
       <path id="m1abbac3427" d="M 0 0 
L -3.5 0 
" style="stroke: #000000; stroke-width: 0.8"/>
      </defs>
      <g>
       <use xlink:href="#m1abbac3427" x="45.956641" y="127.417315" style="stroke: #000000; stroke-width: 0.8"/>
      </g>
     </g>
     <g id="text_8">
      <!-- 0.8 -->
      <g transform="translate(23.053516 131.216534) scale(0.1 -0.1)">
       <defs>
        <path id="DejaVuSans-2e" d="M 684 794 
L 1344 794 
L 1344 0 
L 684 0 
L 684 794 
z
" transform="scale(0.015625)"/>
        <path id="DejaVuSans-38" d="M 2034 2216 
Q 1584 2216 1326 1975 
Q 1069 1734 1069 1313 
Q 1069 891 1326 650 
Q 1584 409 2034 409 
Q 2484 409 2743 651 
Q 3003 894 3003 1313 
Q 3003 1734 2745 1975 
Q 2488 2216 2034 2216 
z
M 1403 2484 
Q 997 2584 770 2862 
Q 544 3141 544 3541 
Q 544 4100 942 4425 
Q 1341 4750 2034 4750 
Q 2731 4750 3128 4425 
Q 3525 4100 3525 3541 
Q 3525 3141 3298 2862 
Q 3072 2584 2669 2484 
Q 3125 2378 3379 2068 
Q 3634 1759 3634 1313 
Q 3634 634 3220 271 
Q 2806 -91 2034 -91 
Q 1263 -91 848 271 
Q 434 634 434 1313 
Q 434 1759 690 2068 
Q 947 2378 1403 2484 
z
M 1172 3481 
Q 1172 3119 1398 2916 
Q 1625 2713 2034 2713 
Q 2441 2713 2670 2916 
Q 2900 3119 2900 3481 
Q 2900 3844 2670 4047 
Q 2441 4250 2034 4250 
Q 1625 4250 1398 4047 
Q 1172 3844 1172 3481 
z
" transform="scale(0.015625)"/>
       </defs>
       <use xlink:href="#DejaVuSans-30"/>
       <use xlink:href="#DejaVuSans-2e" x="63.623047"/>
       <use xlink:href="#DejaVuSans-38" x="95.410156"/>
      </g>
     </g>
    </g>
    <g id="ytick_2">
     <g id="line2d_15">
      <path d="M 45.956641 81.436543 
L 254.912891 81.436543 
" clip-path="url(#pd9f50dbb31)" style="fill: none; stroke: #b0b0b0; stroke-opacity: 0.5; stroke-width: 0.8; stroke-linecap: square"/>
     </g>
     <g id="line2d_16">
      <g>
       <use xlink:href="#m1abbac3427" x="45.956641" y="81.436543" style="stroke: #000000; stroke-width: 0.8"/>
      </g>
     </g>
     <g id="text_9">
      <!-- 0.9 -->
      <g transform="translate(23.053516 85.235761) scale(0.1 -0.1)">
       <defs>
        <path id="DejaVuSans-39" d="M 703 97 
L 703 672 
Q 941 559 1184 500 
Q 1428 441 1663 441 
Q 2288 441 2617 861 
Q 2947 1281 2994 2138 
Q 2813 1869 2534 1725 
Q 2256 1581 1919 1581 
Q 1219 1581 811 2004 
Q 403 2428 403 3163 
Q 403 3881 828 4315 
Q 1253 4750 1959 4750 
Q 2769 4750 3195 4129 
Q 3622 3509 3622 2328 
Q 3622 1225 3098 567 
Q 2575 -91 1691 -91 
Q 1453 -91 1209 -44 
Q 966 3 703 97 
z
M 1959 2075 
Q 2384 2075 2632 2365 
Q 2881 2656 2881 3163 
Q 2881 3666 2632 3958 
Q 2384 4250 1959 4250 
Q 1534 4250 1286 3958 
Q 1038 3666 1038 3163 
Q 1038 2656 1286 2365 
Q 1534 2075 1959 2075 
z
" transform="scale(0.015625)"/>
       </defs>
       <use xlink:href="#DejaVuSans-30"/>
       <use xlink:href="#DejaVuSans-2e" x="63.623047"/>
       <use xlink:href="#DejaVuSans-39" x="95.410156"/>
      </g>
     </g>
    </g>
    <g id="ytick_3">
     <g id="line2d_17">
      <path d="M 45.956641 35.45577 
L 254.912891 35.45577 
" clip-path="url(#pd9f50dbb31)" style="fill: none; stroke: #b0b0b0; stroke-opacity: 0.5; stroke-width: 0.8; stroke-linecap: square"/>
     </g>
     <g id="line2d_18">
      <g>
       <use xlink:href="#m1abbac3427" x="45.956641" y="35.45577" style="stroke: #000000; stroke-width: 0.8"/>
      </g>
     </g>
     <g id="text_10">
      <!-- 1.0 -->
      <g transform="translate(23.053516 39.254989) scale(0.1 -0.1)">
       <use xlink:href="#DejaVuSans-31"/>
       <use xlink:href="#DejaVuSans-2e" x="63.623047"/>
       <use xlink:href="#DejaVuSans-30" x="95.410156"/>
      </g>
     </g>
    </g>
    <g id="text_11">
     <!-- 累积分布函数 -->
     <g transform="translate(16.977344 125.28127) rotate(-90) scale(0.125 -0.125)">
      <defs>
       <path id="WenQuanYiZenHei-7d2f" d="M 5963 -681 
Q 5363 -81 4706 456 
L 5000 819 
Q 5675 269 6294 -350 
L 5963 -681 
z
M 1944 738 
Q 2094 556 2281 413 
Q 1575 -356 375 -706 
Q 350 -481 200 -319 
Q 725 -181 1122 69 
Q 1519 319 1944 738 
z
M 3244 -169 
L 3244 1063 
L 869 881 
L 850 1181 
Q 1431 1325 2969 1988 
L 1119 1931 
L 1113 2231 
Q 1350 2263 1862 2497 
Q 2375 2731 2800 2988 
L 1094 2988 
Q 1169 4006 1094 5019 
L 5506 5019 
Q 5425 4006 5500 2988 
L 3431 2988 
Q 3475 2931 3525 2875 
Q 2856 2494 2281 2256 
L 3388 2269 
L 3650 2288 
Q 4338 2606 4650 2800 
Q 4744 2563 4881 2344 
Q 4644 2225 3975 1956 
L 2269 1281 
L 4444 1425 
L 4813 1469 
L 4681 1588 
L 4988 1938 
Q 5481 1500 5863 963 
L 5481 694 
Q 5300 950 5081 1188 
L 4463 1163 
L 3669 1100 
L 3669 -250 
Q 3669 -444 3488 -594 
Q 3225 -819 2569 -813 
Q 2638 -513 2431 -294 
Q 2619 -319 2900 -322 
Q 3181 -325 3212 -294 
Q 3244 -263 3244 -169 
z
M 3513 4131 
L 5081 4131 
L 5081 4725 
L 3513 4725 
L 3513 4131 
z
M 3088 4131 
L 3088 4725 
L 1519 4725 
L 1519 4131 
L 3088 4131 
z
M 3513 3856 
L 3513 3288 
L 5081 3288 
L 5081 3856 
L 3513 3856 
z
M 3088 3856 
L 1519 3856 
L 1519 3288 
L 3088 3288 
L 3088 3856 
z
" transform="scale(0.015625)"/>
       <path id="WenQuanYiZenHei-79ef" d="M 5275 1238 
Q 5869 375 6388 -544 
L 5975 -775 
Q 5469 125 4888 969 
L 5275 1238 
z
M 3688 1225 
Q 3906 1138 4144 1094 
Q 3856 25 2900 -888 
Q 2775 -700 2563 -625 
Q 2950 -269 3209 150 
Q 3469 569 3688 1225 
z
M 3900 1650 
L 3475 1650 
L 3475 4831 
L 5806 4825 
L 5806 1650 
L 5381 1650 
L 5381 1931 
L 3900 1931 
L 3900 1650 
z
M 5381 4519 
L 3900 4519 
L 3900 2244 
L 5381 2244 
L 5381 4519 
z
M 2981 4275 
L 1969 4200 
L 1969 3275 
L 2313 3275 
Q 2663 3275 3006 3294 
Q 2988 3125 3006 2956 
Q 2663 2969 2313 2969 
L 1969 2969 
L 1969 2481 
L 2125 2594 
L 2869 1750 
L 2463 1456 
L 1969 2006 
L 1969 156 
Q 1969 -281 1994 -713 
Q 1731 -688 1469 -713 
Q 1494 -281 1494 156 
L 1494 1950 
L 1469 1906 
Q 1256 1538 856 950 
L 469 394 
Q 300 538 31 569 
Q 519 1225 1000 2119 
L 1469 2969 
L 856 2969 
Q 506 2969 163 2956 
Q 181 3125 163 3294 
Q 506 3275 856 3275 
L 1494 3275 
L 1494 4156 
L 588 4038 
L 313 4444 
Q 519 4444 719 4425 
Q 994 4413 1575 4494 
Q 2388 4600 2913 4738 
Q 2919 4488 2981 4275 
z
" transform="scale(0.015625)"/>
       <path id="WenQuanYiZenHei-5206" d="M 2088 2169 
Q 1688 2169 1288 2150 
Q 1306 2363 1288 2581 
Q 1688 2563 2088 2563 
L 4819 2563 
L 4819 -169 
Q 4819 -425 4619 -600 
Q 4350 -844 3613 -838 
Q 3688 -513 3456 -269 
Q 3669 -294 3956 -297 
Q 4244 -300 4297 -259 
Q 4350 -219 4350 -31 
L 4350 2169 
L 2931 2169 
Q 2875 1131 2315 309 
Q 1756 -513 881 -813 
Q 681 -519 338 -406 
Q 706 -375 1078 -165 
Q 1450 44 1753 375 
Q 2056 706 2247 1181 
Q 2438 1656 2431 2169 
L 2088 2169 
z
M 6150 2500 
Q 5900 2381 5788 2131 
Q 4863 2606 4306 3450 
Q 3819 4175 3550 5050 
L 3956 5163 
Q 4356 3781 5294 3031 
Q 5694 2719 6150 2500 
z
M 2106 5050 
Q 2369 4944 2650 4900 
Q 2350 4044 1863 3313 
Q 1306 2469 456 1913 
Q 331 2175 75 2313 
Q 831 2769 1338 3381 
Q 1550 3638 1669 3881 
Q 1931 4438 2106 5050 
z
" transform="scale(0.015625)"/>
       <path id="WenQuanYiZenHei-5e03" d="M 3850 -769 
Q 3600 -744 3344 -769 
Q 3369 -306 3369 163 
L 3369 2319 
L 2094 2319 
L 2094 813 
Q 2094 350 2119 -113 
Q 1863 -88 1613 -113 
Q 1638 350 1638 813 
L 1638 1869 
Q 1094 1206 475 706 
Q 325 950 63 1063 
Q 1000 1800 1631 2625 
L 1638 2694 
L 1688 2694 
Q 2075 3206 2313 3775 
L 1169 3775 
Q 788 3775 406 3756 
Q 431 3963 406 4169 
Q 788 4150 1169 4150 
L 2475 4150 
Q 2719 4756 2838 5150 
Q 3094 5044 3369 4988 
Q 3213 4563 3025 4150 
L 5375 4150 
Q 5756 4150 6138 4169 
Q 6113 3963 6138 3756 
Q 5756 3775 5375 3775 
L 2850 3775 
Q 2569 3206 2238 2694 
L 3369 2694 
Q 3363 3038 3344 3381 
Q 3600 3356 3850 3381 
Q 3831 3038 3831 2694 
L 5544 2694 
L 5544 463 
Q 5544 281 5444 150 
Q 5344 19 5181 -50 
Q 4881 -175 4481 -175 
Q 4544 138 4344 388 
Q 4519 363 4766 356 
Q 5013 350 5050 387 
Q 5088 425 5088 569 
L 5088 2319 
L 3825 2319 
L 3825 163 
Q 3825 -306 3850 -769 
z
" transform="scale(0.015625)"/>
       <path id="WenQuanYiZenHei-51fd" d="M 5819 -769 
Q 5575 -744 5338 -769 
Q 5350 -531 5356 -288 
L 425 -288 
L 425 2538 
Q 425 2981 400 3425 
Q 644 3400 881 3425 
Q 863 2981 863 2538 
L 863 44 
L 5356 44 
L 5356 2569 
Q 5356 3013 5338 3456 
Q 5575 3431 5819 3456 
Q 5800 3013 5800 2569 
L 5800 119 
Q 5800 -325 5819 -769 
z
M 3394 775 
Q 3394 506 3213 331 
Q 2931 81 2263 106 
Q 2331 413 2119 644 
Q 2313 619 2578 619 
Q 2844 619 2900 662 
Q 2956 706 2956 938 
L 2956 2050 
Q 2275 1638 1856 1363 
L 1244 938 
Q 1169 1213 963 1413 
Q 1481 1575 1912 1794 
Q 2344 2013 2956 2381 
L 2956 4000 
L 4306 4706 
L 1438 4706 
Q 1100 4706 763 4688 
Q 781 4869 763 5050 
Q 1100 5038 1438 5038 
L 5263 5038 
L 5319 4650 
Q 5056 4594 4813 4475 
L 3394 3738 
L 3394 2281 
L 3463 2375 
L 4306 1756 
L 5119 1094 
L 4806 725 
L 4006 1375 
L 3394 1825 
L 3394 775 
z
M 4744 3613 
Q 4888 3419 5075 3263 
Q 4519 2738 3663 2344 
Q 3600 2563 3419 2713 
Q 3856 2900 4294 3238 
L 4744 3613 
z
M 2238 2313 
Q 1763 2819 1219 3256 
L 1525 3631 
Q 2094 3175 2594 2644 
L 2238 2313 
z
" transform="scale(0.015625)"/>
       <path id="WenQuanYiZenHei-6570" d="M 263 1500 
Q 275 1663 263 1819 
Q 550 1806 844 1806 
L 1169 1806 
Q 1269 2100 1356 2400 
Q 1594 2313 1844 2275 
L 1638 1806 
L 2763 1806 
Q 2731 925 2175 244 
Q 2500 -38 2806 -350 
Q 2588 -481 2400 -656 
Q 2163 -344 1875 -69 
Q 1275 -600 488 -719 
Q 394 -481 225 -288 
Q 969 -269 1550 206 
Q 1169 506 744 725 
Q 919 1113 1069 1519 
L 263 1500 
z
M 2063 2375 
Q 1838 2394 1606 2375 
Q 1625 2800 1625 3225 
L 1625 3538 
Q 1475 3213 1206 2866 
Q 938 2519 388 2038 
Q 275 2225 69 2313 
Q 644 2788 1113 3538 
L 756 3538 
Q 463 3538 169 3525 
Q 188 3681 169 3844 
L 1031 3825 
L 331 4675 
L 688 4969 
L 1431 4063 
L 1144 3825 
L 1625 3825 
L 1625 4244 
Q 1625 4669 1606 5094 
Q 1838 5075 2063 5094 
Q 2044 4669 2044 4244 
L 2044 4044 
Q 2369 4463 2681 5056 
Q 2875 4925 3088 4844 
Q 2844 4363 2400 3825 
L 3156 3844 
Q 3138 3681 3156 3525 
L 2325 3538 
L 2981 2738 
L 2625 2444 
L 2044 3156 
Q 2044 2763 2063 2375 
z
M 1844 506 
Q 2213 950 2306 1519 
L 1519 1519 
L 1275 906 
Q 1569 719 1844 506 
z
M 2044 3538 
L 2044 3400 
L 2213 3538 
L 2044 3538 
z
M 2044 3825 
L 2213 3825 
Q 2138 3888 2044 3919 
L 2044 3825 
z
M 3825 5031 
Q 4038 4963 4288 4944 
Q 4175 4400 4031 3869 
L 4006 3781 
L 5381 3781 
Q 5688 3781 5994 3800 
Q 5981 3600 5994 3406 
L 5363 3419 
Q 5300 1925 4775 888 
Q 5319 106 6213 -306 
Q 6013 -438 5931 -694 
Q 5100 -288 4575 519 
Q 4000 -469 3006 -906 
Q 2950 -613 2781 -438 
Q 3794 -44 4344 913 
Q 3863 1806 3750 2963 
Q 3550 2381 3200 1806 
Q 3044 1981 2788 2025 
Q 3025 2406 3287 2937 
Q 3550 3469 3662 3991 
Q 3775 4513 3825 5031 
z
M 4069 3419 
Q 4081 2794 4215 2244 
Q 4350 1694 4538 1300 
Q 4913 2181 4938 3419 
L 4069 3419 
z
" transform="scale(0.015625)"/>
      </defs>
      <use xlink:href="#WenQuanYiZenHei-7d2f"/>
      <use xlink:href="#WenQuanYiZenHei-79ef" x="100"/>
      <use xlink:href="#WenQuanYiZenHei-5206" x="200"/>
      <use xlink:href="#WenQuanYiZenHei-5e03" x="300"/>
      <use xlink:href="#WenQuanYiZenHei-51fd" x="400"/>
      <use xlink:href="#WenQuanYiZenHei-6570" x="500"/>
     </g>
    </g>
   </g>
   <g id="line2d_19">
    <path d="M 55.454652 137.743034 
L 55.544926 137.161081 
L 55.735303 136.112128 
L 55.817934 135.731344 
L 55.927136 124.53054 
L 56.166291 123.524695 
L 56.195048 123.395372 
L 56.308983 118.452362 
L 56.477155 117.74827 
L 56.68646 113.782366 
L 56.96238 112.88429 
L 57.072675 109.457232 
L 57.176053 108.911202 
L 57.301273 108.372357 
L 57.342042 108.30051 
L 57.454885 105.455406 
L 57.725344 103.968192 
L 57.836731 101.309887 
L 57.965954 100.577057 
L 58.102458 99.872965 
L 58.218577 97.351168 
L 58.484304 96.29503 
L 58.592051 94.56354 
L 58.676865 94.419848 
L 58.856686 94.20431 
L 58.982269 92.638065 
L 59.112948 92.422527 
L 59.247996 92.27165 
L 59.361567 90.784436 
L 59.629478 90.439575 
L 59.742685 89.211007 
L 60.014236 88.837407 
L 60.117979 87.709424 
L 60.258851 87.536993 
L 60.661809 86.078518 
L 60.775016 85.927641 
L 60.862743 84.763735 
L 61.080056 84.612858 
L 61.145214 84.497904 
L 61.266065 83.463321 
L 61.533976 83.190305 
L 61.648639 82.299414 
L 61.909998 82.083876 
L 62.023933 81.200169 
L 62.112751 81.070846 
L 62.229963 80.984631 
L 62.299852 80.941523 
L 62.405051 80.007524 
L 62.638745 79.849463 
L 62.683519 79.806355 
L 62.779253 79.023233 
L 62.929953 78.89391 
L 63.057356 78.836433 
L 63.170199 78.003019 
L 63.447575 77.852142 
L 63.558234 77.083389 
L 63.827965 76.910958 
L 63.939716 76.13502 
L 64.090416 76.027251 
L 64.207627 75.976959 
L 64.316466 75.280052 
L 64.535599 75.093252 
L 64.697948 74.446638 
L 64.951298 74.267022 
L 64.968407 74.252653 
L 65.08307 73.656331 
L 65.354985 73.476715 
L 65.435431 72.736701 
L 65.722999 72.621747 
L 65.835478 72.01824 
L 66.068808 71.874548 
L 66.090284 71.852994 
L 66.219144 71.314148 
L 66.493243 71.220749 
L 66.567865 70.653165 
L 66.873997 70.502288 
L 66.978468 69.920335 
L 67.255843 69.798196 
L 67.371962 69.280904 
L 67.60784 69.18032 
L 67.759268 68.720505 
L 67.990414 68.61992 
L 68.126554 68.009229 
L 68.405385 67.879906 
L 68.502212 67.43446 
L 68.785411 67.369799 
L 68.838557 66.967461 
L 69.149785 66.859692 
L 69.2619 66.464538 
L 69.548375 66.356769 
L 69.629914 65.839477 
L 69.931314 65.753262 
L 70.033964 65.315001 
L 70.308792 65.214416 
L 70.425275 64.826447 
L 70.693186 64.725863 
L 70.775816 64.424109 
L 71.06848 64.33071 
L 71.188967 63.964295 
L 71.341851 63.899633 
L 71.455058 63.856525 
L 71.568993 63.50448 
L 71.816883 63.482926 
L 71.933366 63.102142 
L 72.217294 63.03748 
L 72.314484 62.635142 
L 72.59368 62.570481 
L 72.708707 62.189696 
L 72.98317 62.11785 
L 73.025759 61.75862 
L 73.326431 61.679589 
L 73.471307 61.298805 
L 73.714101 61.205405 
L 73.812384 60.853359 
L 74.123612 60.752775 
L 74.222987 60.393544 
L 74.475609 60.300144 
L 74.610657 59.940914 
L 74.872016 59.854699 
L 74.971026 59.495468 
L 75.268786 59.416438 
L 75.369981 59.035653 
L 75.620784 58.913515 
L 75.707782 58.561469 
L 75.989161 58.482439 
L 76.11074 58.151947 
L 76.407772 58.044178 
L 76.525347 57.663393 
L 76.748849 57.613101 
L 76.877709 57.289794 
L 77.172192 57.210763 
L 77.287583 56.923379 
L 77.554403 56.858717 
L 77.641401 56.506671 
L 77.939525 56.427641 
L 78.047636 56.089964 
L 78.266041 56.06841 
L 78.43203 55.809764 
L 78.699577 55.752288 
L 78.783663 55.414611 
L 79.057034 55.342765 
L 79.193174 55.120042 
L 79.448344 55.062565 
L 79.577568 54.688966 
L 79.845479 54.631489 
L 79.957958 54.272258 
L 80.197112 54.229151 
L 80.301947 53.956136 
L 80.608807 53.877105 
L 80.709638 53.60409 
L 80.909843 53.568167 
L 81.118056 53.309521 
L 81.341558 53.259229 
L 81.46787 53.000583 
L 81.756893 52.935921 
L 81.869736 52.706014 
L 81.880657 52.698829 
L 82.10343 52.691645 
L 82.185697 52.461737 
L 82.512577 52.411445 
L 82.577007 52.124061 
L 82.831086 52.095322 
L 82.971593 51.865415 
L 83.274813 51.807938 
L 83.355259 51.570846 
L 83.584585 51.534923 
L 83.787339 51.305015 
L 84.006473 51.247538 
L 84.124776 50.924231 
L 84.413435 50.830831 
L 84.512446 50.651216 
L 84.748324 50.608108 
L 84.921229 50.406939 
L 85.139634 50.363832 
L 85.295795 50.11237 
L 85.543685 50.01897 
L 85.674729 49.824986 
L 85.909151 49.781878 
L 86.015442 49.544786 
L 86.287721 49.516048 
L 86.40566 49.314879 
L 86.691407 49.235848 
L 86.818811 49.049048 
L 87.09291 48.984387 
L 87.178816 48.776033 
L 87.423431 48.74011 
L 87.511521 48.55331 
L 87.830757 48.510203 
L 87.902103 48.294664 
L 88.222432 48.222818 
L 88.323262 47.985726 
L 88.595542 47.942619 
L 88.699648 47.676788 
L 88.971563 47.597758 
L 89.007236 47.439696 
L 89.385806 47.382219 
L 89.489549 47.216973 
L 90.13421 46.972697 
L 90.257609 46.807451 
L 90.532437 46.778712 
L 90.591406 46.563174 
L 90.873878 46.505697 
L 90.914647 46.36919 
L 91.245531 46.340451 
L 91.320881 46.139282 
L 91.635022 46.110544 
L 91.677611 45.923744 
L 91.981195 45.895005 
L 92.119154 45.758498 
L 92.369957 45.722575 
L 92.440575 45.586067 
L 92.772552 45.564513 
L 92.851906 45.406452 
L 93.187887 45.334606 
L 93.203539 45.226837 
L 93.538792 45.183729 
L 93.585021 44.996929 
L 93.951579 44.961006 
L 94.057142 44.745468 
L 94.309764 44.687991 
L 94.466288 44.537115 
L 94.620992 44.515561 
L 94.835758 44.307207 
L 95.0447 44.278469 
L 95.164459 44.120407 
L 95.474959 44.06293 
L 95.492431 43.912054 
L 95.670432 43.883315 
L 96.103239 43.725254 
L 96.252483 43.689331 
L 96.255395 43.560008 
L 96.58082 43.545639 
L 96.698031 43.34447 
L 97.372905 43.200777 
L 97.435879 43.06427 
L 97.706702 43.035531 
L 97.907635 42.891839 
L 98.106384 42.870285 
L 98.225779 42.712224 
L 98.918854 42.582901 
L 98.944698 42.439209 
L 99.280315 42.410471 
L 99.421915 42.252409 
L 99.688734 42.123086 
L 100.378532 41.950656 
L 100.582378 41.87881 
L 100.825536 41.835702 
L 100.923819 41.677641 
L 101.36245 41.526764 
L 101.81455 41.383072 
L 102.10139 41.253749 
L 102.944436 41.095687 
L 103.26986 40.930441 
L 103.830799 40.779565 
L 103.958931 40.67898 
L 105.962803 40.168873 
L 106.887024 40.032365 
L 106.936893 39.953335 
L 107.318375 39.881489 
L 110.370232 39.220505 
L 111.133196 39.083997 
L 115.823095 38.178736 
L 118.558263 37.754845 
L 121.051729 37.424353 
L 133.68359 36.555015 
L 136.769299 36.411323 
L 142.796206 36.202969 
L 150.298808 36.044908 
L 193.914802 35.54917 
L 245.414879 35.45577 
L 245.414879 35.45577 
" clip-path="url(#pd9f50dbb31)" style="fill: none; stroke: #f97306; stroke-width: 3; stroke-linecap: square"/>
   </g>
   <g id="line2d_20">
    <path d="M 55.455016 140.10677 
L 55.705819 138.698587 
L 55.774252 138.375279 
L 55.81757 138.066341 
L 55.927864 127.691767 
L 56.009767 127.246322 
L 56.199052 126.254846 
L 56.308618 121.484266 
L 56.473515 120.859205 
L 56.577622 120.420944 
L 56.690101 117.044178 
L 56.796391 116.591548 
L 56.957648 115.901826 
L 56.962016 115.894641 
L 57.072311 112.582537 
L 57.343862 111.239015 
L 57.455249 108.40828 
L 57.719156 107.122235 
L 57.725344 107.100681 
L 57.834183 104.54296 
L 57.930645 104.198099 
L 58.106462 103.379054 
L 58.218213 100.87881 
L 58.443171 99.758012 
L 58.487944 99.542473 
L 58.598967 97.573891 
L 58.86797 97.063784 
L 58.979357 95.425693 
L 59.237076 95.073647 
L 59.33463 93.722941 
L 59.438373 93.593618 
L 59.566504 93.392449 
L 59.631662 93.263126 
L 59.737589 92.048927 
L 59.910857 91.80465 
L 60.006956 91.718435 
L 60.114339 90.367729 
L 60.281055 90.195298 
L 60.390622 90.015683 
L 60.506013 89.009838 
L 60.755724 88.736823 
L 60.908244 87.450778 
L 61.154678 87.220871 
L 61.262789 86.085703 
L 61.52342 85.76958 
L 61.643907 84.885873 
L 61.873233 84.684704 
L 61.913638 84.655966 
L 62.029757 83.729151 
L 62.274008 83.520797 
L 62.416335 82.622721 
L 62.676966 82.407183 
L 62.793449 81.588138 
L 63.023868 81.3726 
L 63.066093 81.315123 
L 63.147995 80.316462 
L 63.428282 80.179955 
L 63.545857 79.418386 
L 63.744242 79.281879 
L 63.829057 79.202848 
L 63.912415 78.419726 
L 64.125361 78.290403 
L 64.389996 77.449804 
L 64.558532 77.313296 
L 64.592021 77.298927 
L 64.667735 76.50862 
L 64.862844 76.357743 
L 64.971683 76.264343 
L 65.068509 75.50996 
L 65.338605 75.294421 
L 65.46164 74.654991 
L 65.736467 74.489745 
L 65.820917 73.879054 
L 66.054975 73.735361 
L 66.115401 73.699438 
L 66.202035 73.067193 
L 66.496155 72.901947 
L 66.60827 72.276886 
L 66.879093 72.154748 
L 66.99048 71.47221 
L 67.228906 71.328518 
L 67.374874 70.775303 
L 67.614029 70.602872 
L 67.709399 69.81975 
L 67.991142 69.690427 
L 68.213552 68.864197 
L 68.388641 68.763613 
L 68.505852 68.188844 
L 68.756655 68.052336 
L 68.858941 67.499122 
L 69.140685 67.376983 
L 69.271 66.924353 
L 69.537455 66.845322 
L 69.652482 66.320846 
L 69.915661 66.213077 
L 70.02086 65.659862 
L 70.296415 65.566462 
L 70.408166 64.97014 
L 70.681901 64.919847 
L 70.798748 64.424109 
L 71.047367 64.352263 
L 71.170402 63.899633 
L 71.431761 63.799049 
L 71.510751 63.310495 
L 71.830352 63.202726 
L 71.950475 62.735727 
L 72.190721 62.649511 
L 72.298832 62.247173 
L 72.592224 62.189696 
L 72.710163 61.75862 
L 72.980258 61.672405 
L 73.075992 61.349097 
L 73.315147 61.270067 
L 73.481499 60.961128 
L 73.746498 60.874913 
L 73.747954 60.594713 
L 74.103956 60.515683 
L 74.174937 60.127714 
L 74.432292 60.091791 
L 74.629221 59.703822 
L 74.890944 59.617607 
L 74.948458 59.222453 
L 75.213821 59.172161 
L 75.398374 58.755454 
L 75.6459 58.647685 
L 75.763111 58.374669 
L 76.02447 58.288454 
L 76.146049 57.922039 
L 76.417237 57.843009 
L 76.526439 57.469409 
L 76.769598 57.354455 
L 76.895909 57.009594 
L 77.127419 56.944933 
L 77.283579 56.549779 
L 77.544938 56.470748 
L 77.648317 56.190549 
L 77.936249 56.154626 
L 78.039263 55.852872 
L 78.314091 55.788211 
L 78.398541 55.558303 
L 78.645703 55.464903 
L 78.820792 55.177519 
L 79.054486 55.127227 
L 79.182253 54.818289 
L 79.451621 54.782365 
L 79.552087 54.552458 
L 79.841475 54.451874 
L 79.94995 54.121382 
L 80.200752 54.042351 
L 80.295759 53.754967 
L 80.583326 53.69749 
L 80.723106 53.431659 
L 80.984101 53.331075 
L 81.064547 53.050875 
L 81.363763 53.000583 
L 81.447849 52.749121 
L 81.738693 52.698829 
L 81.854448 52.332414 
L 82.130003 52.267753 
L 82.238114 51.879784 
L 82.475448 51.815122 
L 82.620324 51.556477 
L 82.868215 51.520553 
L 83.01309 51.290646 
L 83.194003 51.261908 
L 83.242052 51.247538 
L 83.399305 50.924231 
L 83.593322 50.85957 
L 83.786247 50.543447 
L 84.015573 50.471601 
L 84.150256 50.184216 
L 84.417075 50.148293 
L 84.429452 49.968678 
L 84.761793 49.904017 
L 84.856071 49.702848 
L 85.146187 49.652555 
L 85.306715 49.365171 
L 85.456687 49.329248 
L 85.681281 49.034679 
L 85.9481 48.998756 
L 86.013258 48.790402 
L 86.304465 48.761664 
L 86.440605 48.560495 
L 86.713612 48.524572 
L 86.800246 48.330588 
L 87.095094 48.294664 
L 87.18646 48.064757 
L 87.351721 48.021649 
L 87.551926 47.784557 
L 87.84459 47.770188 
L 87.925764 47.619311 
L 88.203867 47.597758 
L 88.334547 47.382219 
L 88.593358 47.353481 
L 88.709113 47.166681 
L 88.971563 47.116389 
L 89.12554 46.91522 
L 89.302084 46.857743 
L 89.526678 46.63502 
L 89.745084 46.591912 
L 89.855015 46.362005 
L 90.151319 46.333266 
L 90.249237 46.146467 
L 90.464731 46.081805 
L 90.623439 45.851898 
L 90.904818 45.801606 
L 91.004921 45.629175 
L 91.214227 45.614806 
L 91.347818 45.384898 
L 91.531279 45.363344 
L 91.839959 45.147806 
L 92.024512 45.133437 
L 92.140995 45.004114 
L 92.439483 44.953822 
L 92.542134 44.81013 
L 92.812229 44.788576 
L 92.845354 44.644884 
L 93.194803 44.630514 
L 93.203539 44.515561 
L 93.558812 44.479638 
L 93.660007 44.371869 
L 93.93629 44.328761 
L 94.008 44.185069 
L 94.342889 44.149146 
L 94.347985 43.998269 
L 94.688334 43.926423 
L 94.756768 43.761177 
L 95.030503 43.732438 
L 95.230708 43.531269 
L 95.482239 43.488162 
L 95.513908 43.380393 
L 95.861173 43.337285 
L 95.928879 43.200777 
L 96.245567 43.136116 
L 96.2867 42.999608 
L 96.627049 42.97087 
L 96.636878 42.812809 
L 97.01836 42.683486 
L 97.271346 42.647563 
L 97.771495 42.489501 
L 97.781324 42.374547 
L 98.106384 42.324255 
L 98.267641 42.202117 
L 98.630922 42.072794 
L 99.177665 41.950656 
L 100.544157 41.591425 
L 100.780035 41.562687 
L 100.938015 41.440548 
L 101.196098 41.397441 
L 101.312217 41.260933 
L 101.537539 41.246564 
L 101.682051 41.088503 
L 101.949598 41.059764 
L 101.977626 40.894518 
L 104.910088 40.219165 
L 105.343259 40.111396 
L 105.546376 40.032365 
L 106.296236 39.881489 
L 106.717395 39.773719 
L 109.607267 39.105551 
L 110.319998 39.033705 
L 110.499455 38.947489 
L 110.99924 38.796613 
L 111.133196 38.717582 
L 111.849931 38.645736 
L 111.97697 38.559521 
L 112.606706 38.451752 
L 112.692613 38.379905 
L 114.102786 38.221844 
L 114.61786 38.085337 
L 115.465274 37.970383 
L 119.525801 37.460276 
L 120.627294 37.345322 
L 120.670247 37.29503 
L 121.814693 37.136968 
L 122.247501 37.072307 
L 133.259155 36.432877 
L 141.527997 36.167046 
L 141.65176 36.152677 
L 147.443881 35.987431 
L 159.581417 35.793447 
L 172.394918 35.656939 
L 184.37775 35.599462 
L 230.918561 35.45577 
L 230.918561 35.45577 
" clip-path="url(#pd9f50dbb31)" style="fill: none; stroke-dasharray: 11.1,4.8; stroke-dashoffset: 0; stroke: #0343df; stroke-width: 3"/>
   </g>
   <g id="patch_3">
    <path d="M 45.956641 145.33932 
L 45.956641 30.22322 
" style="fill: none; stroke: #000000; stroke-width: 0.8; stroke-linejoin: miter; stroke-linecap: square"/>
   </g>
   <g id="patch_4">
    <path d="M 254.912891 145.33932 
L 254.912891 30.22322 
" style="fill: none; stroke: #000000; stroke-width: 0.8; stroke-linejoin: miter; stroke-linecap: square"/>
   </g>
   <g id="patch_5">
    <path d="M 45.956641 145.33932 
L 254.912891 145.33932 
" style="fill: none; stroke: #000000; stroke-width: 0.8; stroke-linejoin: miter; stroke-linecap: square"/>
   </g>
   <g id="patch_6">
    <path d="M 45.956641 30.22322 
L 254.912891 30.22322 
" style="fill: none; stroke: #000000; stroke-width: 0.8; stroke-linejoin: miter; stroke-linecap: square"/>
   </g>
   <g id="legend_1">
    <g id="line2d_21">
     <path d="M 50.756641 17.64 
L 68.756641 17.64 
L 86.756641 17.64 
" style="fill: none; stroke: #f97306; stroke-width: 3; stroke-linecap: square"/>
    </g>
    <g id="text_12">
     <!-- LetFlow+PAN -->
     <g transform="translate(96.356641 23.28) scale(0.12 -0.12)">
      <defs>
       <path id="DejaVuSans-4c" d="M 628 4666 
L 1259 4666 
L 1259 531 
L 3531 531 
L 3531 0 
L 628 0 
L 628 4666 
z
" transform="scale(0.015625)"/>
       <path id="DejaVuSans-65" d="M 3597 1894 
L 3597 1613 
L 953 1613 
Q 991 1019 1311 708 
Q 1631 397 2203 397 
Q 2534 397 2845 478 
Q 3156 559 3463 722 
L 3463 178 
Q 3153 47 2828 -22 
Q 2503 -91 2169 -91 
Q 1331 -91 842 396 
Q 353 884 353 1716 
Q 353 2575 817 3079 
Q 1281 3584 2069 3584 
Q 2775 3584 3186 3129 
Q 3597 2675 3597 1894 
z
M 3022 2063 
Q 3016 2534 2758 2815 
Q 2500 3097 2075 3097 
Q 1594 3097 1305 2825 
Q 1016 2553 972 2059 
L 3022 2063 
z
" transform="scale(0.015625)"/>
       <path id="DejaVuSans-74" d="M 1172 4494 
L 1172 3500 
L 2356 3500 
L 2356 3053 
L 1172 3053 
L 1172 1153 
Q 1172 725 1289 603 
Q 1406 481 1766 481 
L 2356 481 
L 2356 0 
L 1766 0 
Q 1100 0 847 248 
Q 594 497 594 1153 
L 594 3053 
L 172 3053 
L 172 3500 
L 594 3500 
L 594 4494 
L 1172 4494 
z
" transform="scale(0.015625)"/>
       <path id="DejaVuSans-46" d="M 628 4666 
L 3309 4666 
L 3309 4134 
L 1259 4134 
L 1259 2759 
L 3109 2759 
L 3109 2228 
L 1259 2228 
L 1259 0 
L 628 0 
L 628 4666 
z
" transform="scale(0.015625)"/>
       <path id="DejaVuSans-6c" d="M 603 4863 
L 1178 4863 
L 1178 0 
L 603 0 
L 603 4863 
z
" transform="scale(0.015625)"/>
       <path id="DejaVuSans-6f" d="M 1959 3097 
Q 1497 3097 1228 2736 
Q 959 2375 959 1747 
Q 959 1119 1226 758 
Q 1494 397 1959 397 
Q 2419 397 2687 759 
Q 2956 1122 2956 1747 
Q 2956 2369 2687 2733 
Q 2419 3097 1959 3097 
z
M 1959 3584 
Q 2709 3584 3137 3096 
Q 3566 2609 3566 1747 
Q 3566 888 3137 398 
Q 2709 -91 1959 -91 
Q 1206 -91 779 398 
Q 353 888 353 1747 
Q 353 2609 779 3096 
Q 1206 3584 1959 3584 
z
" transform="scale(0.015625)"/>
       <path id="DejaVuSans-77" d="M 269 3500 
L 844 3500 
L 1563 769 
L 2278 3500 
L 2956 3500 
L 3675 769 
L 4391 3500 
L 4966 3500 
L 4050 0 
L 3372 0 
L 2619 2869 
L 1863 0 
L 1184 0 
L 269 3500 
z
" transform="scale(0.015625)"/>
       <path id="DejaVuSans-2b" d="M 2944 4013 
L 2944 2272 
L 4684 2272 
L 4684 1741 
L 2944 1741 
L 2944 0 
L 2419 0 
L 2419 1741 
L 678 1741 
L 678 2272 
L 2419 2272 
L 2419 4013 
L 2944 4013 
z
" transform="scale(0.015625)"/>
       <path id="DejaVuSans-50" d="M 1259 4147 
L 1259 2394 
L 2053 2394 
Q 2494 2394 2734 2622 
Q 2975 2850 2975 3272 
Q 2975 3691 2734 3919 
Q 2494 4147 2053 4147 
L 1259 4147 
z
M 628 4666 
L 2053 4666 
Q 2838 4666 3239 4311 
Q 3641 3956 3641 3272 
Q 3641 2581 3239 2228 
Q 2838 1875 2053 1875 
L 1259 1875 
L 1259 0 
L 628 0 
L 628 4666 
z
" transform="scale(0.015625)"/>
       <path id="DejaVuSans-41" d="M 2188 4044 
L 1331 1722 
L 3047 1722 
L 2188 4044 
z
M 1831 4666 
L 2547 4666 
L 4325 0 
L 3669 0 
L 3244 1197 
L 1141 1197 
L 716 0 
L 50 0 
L 1831 4666 
z
" transform="scale(0.015625)"/>
       <path id="DejaVuSans-4e" d="M 628 4666 
L 1478 4666 
L 3547 763 
L 3547 4666 
L 4159 4666 
L 4159 0 
L 3309 0 
L 1241 3903 
L 1241 0 
L 628 0 
L 628 4666 
z
" transform="scale(0.015625)"/>
      </defs>
      <use xlink:href="#DejaVuSans-4c"/>
      <use xlink:href="#DejaVuSans-65" x="53.962891"/>
      <use xlink:href="#DejaVuSans-74" x="115.486328"/>
      <use xlink:href="#DejaVuSans-46" x="154.695312"/>
      <use xlink:href="#DejaVuSans-6c" x="212.214844"/>
      <use xlink:href="#DejaVuSans-6f" x="239.998047"/>
      <use xlink:href="#DejaVuSans-77" x="301.179688"/>
      <use xlink:href="#DejaVuSans-2b" x="382.966797"/>
      <use xlink:href="#DejaVuSans-50" x="466.755859"/>
      <use xlink:href="#DejaVuSans-41" x="520.683594"/>
      <use xlink:href="#DejaVuSans-4e" x="589.091797"/>
     </g>
    </g>
    <g id="line2d_22">
     <path d="M 185.625391 17.64 
L 203.625391 17.64 
L 221.625391 17.64 
" style="fill: none; stroke-dasharray: 11.1,4.8; stroke-dashoffset: 0; stroke: #0343df; stroke-width: 3"/>
    </g>
    <g id="text_13">
     <!-- LetFlow -->
     <g transform="translate(231.225391 23.28) scale(0.12 -0.12)">
      <use xlink:href="#DejaVuSans-4c"/>
      <use xlink:href="#DejaVuSans-65" x="53.962891"/>
      <use xlink:href="#DejaVuSans-74" x="115.486328"/>
      <use xlink:href="#DejaVuSans-46" x="154.695312"/>
      <use xlink:href="#DejaVuSans-6c" x="212.214844"/>
      <use xlink:href="#DejaVuSans-6f" x="239.998047"/>
      <use xlink:href="#DejaVuSans-77" x="301.179688"/>
     </g>
    </g>
   </g>
  </g>
 </g>
 <defs>
  <clipPath id="pd9f50dbb31">
   <rect x="45.956641" y="30.22322" width="208.95625" height="115.1161"/>
  </clipPath>
 </defs>
</svg>
